<svg viewBox="0 0 729 401" fill="none" xmlns="http://www.w3.org/2000/svg">
<path d="M81.2784 0.515808C75.1308 4.11948 69.2503 8.25993 63.6846 12.9474C-4.95232 70.7546 0.265656 189.877 75.3389 279.015C150.412 368.152 266.912 393.551 335.549 335.744C359.069 315.936 372 292.516 378.249 258.393H393.055C391.25 302.189 374.768 341.457 343.164 368.074C270.779 429.038 146.485 400.554 65.5469 304.452C-15.3915 208.351 -22.3251 81.0237 50.0596 20.0598C59.6316 11.9981 70.1113 5.49965 81.2784 0.515808Z" fill="black"/>
<path d="M78.6999 24.2533C141.151 -23.8858 246.37 2.98585 316 75.3116H290.072C219.382 21.8861 133.236 1.78926 81.7235 41.4967C31.7301 80.0336 29.7809 156.456 71.3028 227.516C14 168.516 21.2002 68.5763 78.6999 24.2533Z" fill="#E13404"/>
<path d="M175.383 211.102L178.273 210.906C178.508 210.88 178.755 210.854 179.016 210.828C181.438 210.464 183.299 209.083 184.602 206.688C184.732 206.271 184.888 205.763 185.07 205.164C186.008 201.622 186.477 198.745 186.477 196.531C186.477 196.245 186.359 195.958 186.125 195.672C185.604 195.047 184.94 194.734 184.133 194.734C183.846 194.708 183.104 194.695 181.906 194.695C180.917 194.695 180.148 194.682 179.602 194.656L175.383 211.102ZM168.898 194.578H166.242C165.878 194.578 165.539 194.487 165.227 194.305C164.549 193.888 164.341 193.25 164.602 192.391L166.008 187C166.06 186.792 166.151 186.583 166.281 186.375C166.698 185.75 167.206 185.438 167.805 185.438H184.445C186.685 185.438 188.677 185.776 190.422 186.453C194.354 188.016 196.32 191.062 196.32 195.594C196.32 198.484 195.708 201.844 194.484 205.672C193.104 209.969 191.021 213.224 188.234 215.438C185.292 217.885 180.318 219.148 173.312 219.227L167.961 240.281C167.648 241.401 166.867 241.974 165.617 242H158.977C158.638 242 158.339 241.922 158.078 241.766C157.401 241.323 157.18 240.594 157.414 239.578L168.898 194.578ZM215.263 211.336L218.192 210.906C218.947 210.802 219.377 210.724 219.481 210.672C221.617 209.943 223.023 209.044 223.7 207.977C224.351 206.883 224.781 205.945 224.989 205.164C225.927 201.674 226.395 198.797 226.395 196.531C226.395 196.115 226.187 195.737 225.77 195.398C225.406 195.086 224.963 194.878 224.442 194.773C224.13 194.721 223.257 194.682 221.825 194.656C221.122 194.656 220.354 194.656 219.52 194.656L215.263 211.336ZM208.817 194.578H206.161C205.796 194.578 205.458 194.487 205.145 194.305C204.468 193.888 204.26 193.25 204.52 192.391L205.927 187C205.979 186.792 206.07 186.583 206.2 186.375C206.617 185.75 207.124 185.438 207.723 185.438H224.364C226.604 185.438 228.596 185.776 230.341 186.453C234.273 188.016 236.239 191.062 236.239 195.594C236.239 198.693 235.627 202.052 234.403 205.672C233.075 209.604 231.604 212.286 229.989 213.719C228.244 215.438 226.565 216.714 224.95 217.547L228.114 238.719C228.166 239.135 228.192 239.526 228.192 239.891C228.114 241.297 227.385 242 226.005 242H219.833C219.572 242 219.312 241.948 219.052 241.844C217.958 241.349 217.281 240.099 217.02 238.094L214.677 219.227H213.231L207.88 240.281C207.567 241.401 206.786 241.974 205.536 242H198.895C198.557 242 198.257 241.922 197.997 241.766C197.32 241.323 197.098 240.594 197.333 239.578L208.817 194.578ZM251.314 187.156C251.627 186.036 252.408 185.464 253.658 185.438H260.298C260.637 185.438 260.936 185.516 261.197 185.672C261.874 186.115 262.095 186.844 261.861 187.859L248.502 240.281C248.189 241.401 247.408 241.974 246.158 242H239.517C239.179 242 238.879 241.922 238.619 241.766C237.942 241.323 237.72 240.594 237.955 239.578L251.314 187.156ZM277.834 230.203L298.967 187.078C299.54 185.932 300.53 185.411 301.936 185.516L308.03 185.75C308.811 185.75 309.384 185.984 309.748 186.453C310.269 186.922 310.269 187.651 309.748 188.641L283.655 238.875C283.42 239.292 283.199 239.656 282.991 239.969C281.975 241.323 280.764 242 279.358 242L270.373 242.078C269.514 242.026 268.837 241.779 268.342 241.336C267.587 240.685 267.248 239.682 267.327 238.328L270.217 187.312C270.269 186.193 271.051 185.62 272.561 185.594H278.889C279.41 185.594 279.84 185.737 280.178 186.023C280.569 186.336 280.738 186.896 280.686 187.703L277.834 230.203ZM323.495 217.469H331.972L333.339 197.391L323.495 217.469ZM318.925 226.766L312.206 240.516C311.607 241.661 310.618 242.182 309.238 242.078L303.144 241.844C303.118 241.844 303.066 241.844 302.988 241.844C301.321 241.714 300.8 240.75 301.425 238.953L327.519 188.719C327.701 188.354 327.922 187.99 328.183 187.625C329.198 186.271 330.409 185.594 331.816 185.594L340.8 185.516C341.295 185.49 341.751 185.568 342.167 185.75C343.365 186.297 343.925 187.469 343.847 189.266L340.956 240.281C340.8 241.375 340.019 241.948 338.613 242H332.284C332.102 242 331.92 241.987 331.738 241.961C330.748 241.753 330.331 241.062 330.488 239.891L331.347 226.766H318.925ZM390.484 185.438C392.021 185.438 392.62 186.271 392.281 187.938L391.266 192.547C391.188 192.859 391.044 193.172 390.836 193.484C390.237 194.318 389.495 194.734 388.609 194.734H377.398L365.797 240.281C365.484 241.401 364.703 241.974 363.453 242H356.734C356.266 242 355.849 241.818 355.484 241.453C355.12 241.089 355.016 240.594 355.172 239.969L366.695 194.734H354.781C354.599 194.734 354.404 194.721 354.195 194.695C353.18 194.513 352.88 193.589 353.297 191.922L354.547 187C354.651 186.609 354.768 186.297 354.898 186.062C355.185 185.646 355.849 185.438 356.891 185.438H390.484ZM405.364 206.688H418.684C420.117 206.714 420.664 207.547 420.325 209.188L419.387 213.797C419.309 214.109 419.179 214.422 418.997 214.734C418.424 215.568 417.721 215.984 416.887 215.984H403.02L398.723 232.703H413.684C415.221 232.729 415.82 233.562 415.481 235.203L414.466 239.812C414.387 240.125 414.244 240.438 414.036 240.75C413.437 241.583 412.695 242 411.809 242H387.825C387.486 242 387.174 241.922 386.887 241.766C386.21 241.323 386.002 240.594 386.262 239.578L397.708 194.734H394.934C394.726 194.734 394.531 194.721 394.348 194.695C393.307 194.513 393.007 193.589 393.45 191.922L394.7 187C394.804 186.531 394.921 186.154 395.052 185.867C395.208 185.581 395.611 185.438 396.262 185.438H425.247C426.783 185.464 427.382 186.297 427.044 187.938L426.028 192.547C425.95 192.859 425.807 193.172 425.598 193.484C424.999 194.318 424.257 194.734 423.372 194.734H408.411L405.364 206.688ZM457.545 187.156C457.858 186.036 458.639 185.464 459.889 185.438H466.53C466.868 185.438 467.168 185.516 467.428 185.672C468.105 186.115 468.327 186.844 468.092 187.859L463.288 206.688H478.288L483.248 187.156C483.561 186.036 484.342 185.464 485.592 185.438H492.233C492.571 185.438 492.871 185.516 493.131 185.672C493.808 186.115 494.03 186.844 493.795 187.859L480.436 240.281C480.123 241.401 479.342 241.974 478.092 242H471.452C471.113 242 470.814 241.922 470.553 241.766C469.876 241.323 469.655 240.594 469.889 239.578L475.905 215.984H460.944L454.733 240.281C454.42 241.401 453.639 241.974 452.389 242H445.748C445.41 242 445.11 241.922 444.85 241.766C444.173 241.323 443.952 240.594 444.186 239.578L457.545 187.156ZM507.23 187.156C507.542 186.036 508.323 185.464 509.573 185.438H516.214C516.553 185.438 516.852 185.516 517.112 185.672C517.79 186.115 518.011 186.844 517.777 187.859L504.417 240.281C504.105 241.401 503.323 241.974 502.073 242H495.433C495.094 242 494.795 241.922 494.534 241.766C493.857 241.323 493.636 240.594 493.87 239.578L507.23 187.156ZM536.562 211.336L539.492 210.906C540.247 210.802 540.677 210.724 540.781 210.672C542.917 209.943 544.323 209.044 545 207.977C545.651 206.883 546.081 205.945 546.289 205.164C547.227 201.674 547.695 198.797 547.695 196.531C547.695 196.115 547.487 195.737 547.07 195.398C546.706 195.086 546.263 194.878 545.742 194.773C545.43 194.721 544.557 194.682 543.125 194.656C542.422 194.656 541.654 194.656 540.82 194.656L536.562 211.336ZM530.117 194.578H527.461C527.096 194.578 526.758 194.487 526.445 194.305C525.768 193.888 525.56 193.25 525.82 192.391L527.227 187C527.279 186.792 527.37 186.583 527.5 186.375C527.917 185.75 528.424 185.438 529.023 185.438H545.664C547.904 185.438 549.896 185.776 551.641 186.453C555.573 188.016 557.539 191.062 557.539 195.594C557.539 198.693 556.927 202.052 555.703 205.672C554.375 209.604 552.904 212.286 551.289 213.719C549.544 215.438 547.865 216.714 546.25 217.547L549.414 238.719C549.466 239.135 549.492 239.526 549.492 239.891C549.414 241.297 548.685 242 547.305 242H541.133C540.872 242 540.612 241.948 540.352 241.844C539.258 241.349 538.581 240.099 538.32 238.094L535.977 219.227H534.531L529.18 240.281C528.867 241.401 528.086 241.974 526.836 242H520.195C519.857 242 519.557 241.922 519.297 241.766C518.62 241.323 518.398 240.594 518.633 239.578L530.117 194.578ZM578.395 206.688H591.716C593.148 206.714 593.695 207.547 593.356 209.188L592.419 213.797C592.341 214.109 592.21 214.422 592.028 214.734C591.455 215.568 590.752 215.984 589.919 215.984H576.052L571.755 232.703H586.716C588.252 232.729 588.851 233.562 588.513 235.203L587.497 239.812C587.419 240.125 587.276 240.438 587.067 240.75C586.468 241.583 585.726 242 584.841 242H560.856C560.518 242 560.205 241.922 559.919 241.766C559.242 241.323 559.033 240.594 559.294 239.578L570.739 194.734H567.966C567.757 194.734 567.562 194.721 567.38 194.695C566.338 194.513 566.039 193.589 566.481 191.922L567.731 187C567.835 186.531 567.953 186.154 568.083 185.867C568.239 185.581 568.643 185.438 569.294 185.438H598.278C599.815 185.464 600.414 186.297 600.075 187.938L599.059 192.547C598.981 192.859 598.838 193.172 598.63 193.484C598.031 194.318 597.289 194.734 596.403 194.734H581.442L578.395 206.688Z" fill="black"/>
<path d="M518.612 143.904C518.149 142.512 516.758 140.077 516.295 139.38C515.833 138.684 511.2 138.684 511.2 138.684V140.076H507.958L507.494 141.816H504.251L499.619 140.076L489.891 139.729C489.891 139.729 487.575 135.205 486.649 133.465C485.723 131.378 488.502 132.073 488.502 132.073L508.886 131.725C508.886 131.725 503.327 127.202 502.862 127.202C502.4 127.202 494.06 123.375 473.214 119.548C452.367 115.721 410.675 112.241 410.675 112.241C410.675 112.241 393.998 101.455 349.988 88.93C305.979 76.4046 233.712 84.4063 224.447 85.7983C215.182 87.1903 156.348 104.24 156.348 104.24L120.214 105.979C119.288 105.979 118.36 106.675 117.897 107.371V113.286L114.191 118.852C113.728 119.897 113.265 125.463 112.8 126.506L104.926 133.813C104.463 134.508 104 135.205 104 135.9C104 138.335 104.926 143.903 105.39 145.643C106.316 148.078 106.781 151.557 106.316 152.949C105.387 154.341 112.336 159.213 112.336 159.213L158.662 166.172C158.199 164.78 158.199 163.388 158.199 161.997C158.199 147.384 173.95 135.206 193.868 135.206C213.789 135.206 229.538 147.036 229.538 161.997C229.538 164.432 229.075 166.521 228.612 168.608C232.319 168.608 234.635 168.956 234.635 168.956C235.561 168.956 340.721 169.651 412.062 170C411.136 167.913 411.136 165.825 411.136 163.389C411.136 148.776 426.887 136.598 446.806 136.598C466.726 136.598 482.475 148.428 482.475 163.389C482.475 165.476 482.012 167.913 481.549 169.652L502.396 167.217C502.396 167.217 516.756 164.086 518.61 163.39C520 162.695 519.536 157.127 520 155.387C518.61 153.646 518.61 145.295 518.61 143.904L518.612 143.904ZM209.622 111.197C209.622 111.197 201.747 100.759 205.915 98.3243C211.01 95.1926 211.473 95.5403 229.078 91.7132C246.682 87.8861 289.764 88.2338 289.764 88.2338L291.617 113.981L209.622 111.197ZM306.905 114.677L298.565 88.5814C299.491 88.5814 311.537 88.9292 321.728 89.9734C331.919 91.0177 355.082 95.5401 374.539 104.935C393.995 113.981 396.311 119.2 396.311 119.2L306.905 114.677Z" fill="black"/>
<path d="M414.691 290.094C413.207 295.734 412.465 300.324 412.465 303.861C412.465 307.646 413.306 309.539 414.988 309.539C415.359 309.539 415.73 309.49 416.102 309.391C417.165 309.044 418.303 307.857 419.516 305.828C421.049 303.156 422.583 298.777 424.117 292.691C425.676 286.333 426.455 281.559 426.455 278.367C426.455 275.176 425.676 273.568 424.117 273.543C422.336 273.543 420.802 274.607 419.516 276.734C417.957 279.307 416.349 283.76 414.691 290.094ZM404.152 287.719C405.835 281.212 408.222 275.831 411.314 271.576C415.174 266.307 419.491 263.672 424.266 263.672C424.488 263.672 424.711 263.672 424.934 263.672C428.917 263.895 431.861 265.132 433.766 267.383C435.646 269.609 436.586 273.395 436.586 278.738C436.586 283.167 435.745 288.708 434.062 295.363C432.85 300.163 431.304 304.307 429.424 307.795C425.589 314.846 420.802 318.371 415.062 318.371C411.129 318.371 408.123 317.369 406.045 315.365C403.447 312.792 402.148 308.228 402.148 301.672C402.148 297.565 402.816 292.914 404.152 287.719ZM458.752 288.646L461.498 288.461C461.721 288.436 461.956 288.411 462.203 288.387C464.504 288.04 466.273 286.729 467.51 284.453C467.634 284.057 467.782 283.575 467.955 283.006C468.846 279.641 469.291 276.908 469.291 274.805C469.291 274.533 469.18 274.26 468.957 273.988C468.462 273.395 467.832 273.098 467.065 273.098C466.792 273.073 466.087 273.061 464.949 273.061C464.009 273.061 463.279 273.048 462.76 273.023L458.752 288.646ZM452.592 272.949H450.069C449.722 272.949 449.401 272.863 449.104 272.689C448.46 272.294 448.263 271.688 448.51 270.871L449.846 265.75C449.895 265.552 449.982 265.354 450.106 265.156C450.501 264.562 450.984 264.266 451.553 264.266H467.361C469.489 264.266 471.382 264.587 473.039 265.23C476.775 266.715 478.643 269.609 478.643 273.914C478.643 276.66 478.061 279.852 476.899 283.488C475.587 287.57 473.608 290.663 470.961 292.766C468.166 295.091 463.44 296.291 456.785 296.365L451.701 316.367C451.404 317.431 450.662 317.975 449.475 318H443.166C442.845 318 442.56 317.926 442.313 317.777C441.669 317.357 441.459 316.664 441.682 315.699L452.592 272.949ZM501.588 284.453H514.243C515.603 284.478 516.123 285.27 515.801 286.828L514.91 291.207C514.836 291.504 514.713 291.801 514.539 292.098C513.995 292.889 513.327 293.285 512.535 293.285H499.362L495.28 309.168H509.493C510.952 309.193 511.521 309.984 511.2 311.543L510.235 315.922C510.16 316.219 510.024 316.516 509.826 316.812C509.257 317.604 508.552 318 507.711 318H484.926C484.604 318 484.308 317.926 484.035 317.777C483.392 317.357 483.194 316.664 483.442 315.699L494.315 273.098H491.68C491.482 273.098 491.297 273.085 491.123 273.061C490.134 272.887 489.849 272.009 490.27 270.426L491.457 265.75C491.556 265.305 491.668 264.946 491.791 264.674C491.94 264.402 492.323 264.266 492.942 264.266H520.477C521.937 264.29 522.506 265.082 522.184 266.641L521.219 271.02C521.145 271.316 521.009 271.613 520.811 271.91C520.242 272.702 519.537 273.098 518.696 273.098H504.483L501.588 284.453ZM541.122 288.869L543.905 288.461C544.622 288.362 545.03 288.288 545.129 288.238C547.158 287.546 548.494 286.692 549.137 285.678C549.756 284.639 550.164 283.748 550.362 283.006C551.252 279.691 551.698 276.957 551.698 274.805C551.698 274.409 551.5 274.05 551.104 273.729C550.758 273.432 550.337 273.234 549.842 273.135C549.545 273.085 548.717 273.048 547.356 273.023C546.688 273.023 545.958 273.023 545.166 273.023L541.122 288.869ZM534.999 272.949H532.475C532.129 272.949 531.807 272.863 531.51 272.689C530.867 272.294 530.669 271.688 530.916 270.871L532.252 265.75C532.302 265.552 532.388 265.354 532.512 265.156C532.908 264.562 533.39 264.266 533.959 264.266H549.768C551.896 264.266 553.788 264.587 555.446 265.23C559.181 266.715 561.049 269.609 561.049 273.914C561.049 276.858 560.468 280.049 559.305 283.488C558.043 287.224 556.646 289.772 555.112 291.133C553.454 292.766 551.859 293.978 550.325 294.77L553.331 314.883C553.38 315.279 553.405 315.65 553.405 315.996C553.331 317.332 552.638 318 551.327 318H545.463C545.216 318 544.969 317.951 544.721 317.852C543.682 317.382 543.039 316.194 542.791 314.289L540.565 296.365H539.192L534.108 316.367C533.811 317.431 533.069 317.975 531.881 318H525.573C525.251 318 524.967 317.926 524.719 317.777C524.076 317.357 523.866 316.664 524.088 315.699L534.999 272.949ZM583.772 294.695H591.825L593.124 275.621L583.772 294.695ZM579.43 303.527L573.048 316.59C572.478 317.678 571.538 318.173 570.227 318.074L564.438 317.852C564.413 317.852 564.364 317.852 564.29 317.852C562.706 317.728 562.212 316.812 562.805 315.105L587.594 267.383C587.768 267.036 587.978 266.69 588.225 266.344C589.19 265.057 590.34 264.414 591.676 264.414L600.212 264.34C600.682 264.315 601.115 264.389 601.51 264.562C602.648 265.082 603.18 266.195 603.106 267.902L600.36 316.367C600.212 317.406 599.469 317.951 598.133 318H592.122C591.949 318 591.775 317.988 591.602 317.963C590.662 317.765 590.266 317.109 590.415 315.996L591.231 303.527H579.43ZM651.212 264.266C652.671 264.266 653.24 265.057 652.919 266.641L651.954 271.02C651.88 271.316 651.744 271.613 651.546 271.91C650.977 272.702 650.272 273.098 649.43 273.098H638.78L627.759 316.367C627.462 317.431 626.72 317.975 625.532 318H619.149C618.704 318 618.308 317.827 617.962 317.48C617.615 317.134 617.516 316.664 617.665 316.07L628.612 273.098H617.294C617.121 273.098 616.935 273.085 616.737 273.061C615.772 272.887 615.488 272.009 615.884 270.426L617.071 265.75C617.17 265.379 617.281 265.082 617.405 264.859C617.677 264.464 618.308 264.266 619.298 264.266H651.212ZM664.212 290.094C662.728 295.734 661.985 300.324 661.985 303.861C661.985 307.646 662.826 309.539 664.509 309.539C664.88 309.539 665.251 309.49 665.622 309.391C666.686 309.044 667.824 307.857 669.036 305.828C670.57 303.156 672.104 298.777 673.638 292.691C675.196 286.333 675.976 281.559 675.976 278.367C675.976 275.176 675.196 273.568 673.638 273.543C671.856 273.543 670.323 274.607 669.036 276.734C667.478 279.307 665.869 283.76 664.212 290.094ZM653.673 287.719C655.355 281.212 657.742 275.831 660.835 271.576C664.694 266.307 669.011 263.672 673.786 263.672C674.009 263.672 674.231 263.672 674.454 263.672C678.437 263.895 681.381 265.132 683.286 267.383C685.166 269.609 686.106 273.395 686.106 278.738C686.106 283.167 685.265 288.708 683.583 295.363C682.371 300.163 680.825 304.307 678.944 307.795C675.11 314.846 670.323 318.371 664.583 318.371C660.649 318.371 657.644 317.369 655.565 315.365C652.968 312.792 651.669 308.228 651.669 301.672C651.669 297.565 652.337 292.914 653.673 287.719ZM708.235 288.869L711.019 288.461C711.736 288.362 712.144 288.288 712.243 288.238C714.272 287.546 715.608 286.692 716.251 285.678C716.87 284.639 717.278 283.748 717.476 283.006C718.366 279.691 718.812 276.957 718.812 274.805C718.812 274.409 718.614 274.05 718.218 273.729C717.872 273.432 717.451 273.234 716.956 273.135C716.659 273.085 715.831 273.048 714.47 273.023C713.802 273.023 713.072 273.023 712.28 273.023L708.235 288.869ZM702.112 272.949H699.589C699.243 272.949 698.921 272.863 698.624 272.689C697.981 272.294 697.783 271.688 698.03 270.871L699.366 265.75C699.416 265.552 699.502 265.354 699.626 265.156C700.022 264.562 700.504 264.266 701.073 264.266H716.882C719.01 264.266 720.902 264.587 722.56 265.23C726.295 266.715 728.163 269.609 728.163 273.914C728.163 276.858 727.582 280.049 726.419 283.488C725.157 287.224 723.76 289.772 722.226 291.133C720.568 292.766 718.972 293.978 717.439 294.77L720.444 314.883C720.494 315.279 720.519 315.65 720.519 315.996C720.444 317.332 719.752 318 718.441 318H712.577C712.33 318 712.082 317.951 711.835 317.852C710.796 317.382 710.153 316.194 709.905 314.289L707.679 296.365H706.306L701.222 316.367C700.925 317.431 700.183 317.975 698.995 318H692.687C692.365 318 692.081 317.926 691.833 317.777C691.19 317.357 690.98 316.664 691.202 315.699L702.112 272.949Z" fill="#E13404"/>
<path d="M361.468 259.123L344.468 259.123C342.056 328.906 292.409 347.723 271 348.609C340.176 351.051 359.827 295.172 361.468 259.123Z" fill="#E13404"/>
<path d="M447.147 141C464.35 141 478.296 152.586 478.296 166.877C478.296 167.934 478.218 168.976 478.069 170C476.213 157.181 463.078 147.246 447.147 147.246C431.217 147.246 418.082 157.181 416.226 170C416.077 168.976 416 167.934 416 166.877C416 152.586 429.945 141 447.147 141Z" fill="#E13404"/>
<path d="M194.147 140C211.35 140 225.296 151.586 225.296 165.877C225.296 166.934 225.218 167.976 225.069 169C223.213 156.181 210.078 146.246 194.147 146.246C178.217 146.246 165.082 156.181 163.226 169C163.077 167.976 163 166.934 163 165.877C163 151.586 176.945 140 194.147 140Z" fill="#E13404"/>
</svg>
