<svg width="715" height="129" viewBox="0 0 715 129" fill="none" xmlns="http://www.w3.org/2000/svg">
<path fill-rule="evenodd" clip-rule="evenodd" d="M59.9587 35.0165C43.9364 40.9279 44.4282 45.66 39.7199 46.8431C35.0125 48.0262 30.8835 46.4737 30.6345 54.5286C30.3848 62.5853 28.6518 62.7336 29.0626 65.0254C29.4774 67.3172 30.3848 73.8233 32.4493 74.7818C34.5137 75.7439 34.7607 75.5223 34.7607 75.5223L34.7757 75.4906C34.6228 74.3727 34.541 73.2006 34.541 71.9968C34.541 64.0879 38.0518 57.6812 42.3832 57.6812C46.7155 57.6812 50.2276 64.0877 50.2276 71.9968C50.2276 73.9997 49.999 75.9071 49.5904 77.642C50.156 78.4069 51.3635 79.4368 53.8407 79.6621C57.8918 80.0297 89.8559 82.3984 95.4727 83.1389C96.3862 83.2573 97.168 83.3562 97.8366 83.4411C97.6142 82.1133 97.4948 80.7311 97.4948 79.3075C97.4948 69.0768 103.653 60.7813 111.245 60.7813C118.843 60.7813 125.001 69.076 125.001 79.3075C125.001 80.9088 124.85 82.4637 124.567 83.9436C124.996 84.7726 125.799 86.0498 126.78 86.3891C128.268 86.9068 191.623 83.8782 191.623 83.8782C191.623 83.8782 195.341 82.6951 194.929 79.2214C194.493 75.6127 196.423 71.4291 195.914 68.3924C195.698 66.9407 195.497 65.0951 194.174 64.4224C192.596 63.6215 192.447 61.1068 191.951 59.6777C191.634 57.3389 181.069 53.9745 179.153 53.3536C165.44 48.9183 155.032 48.7719 155.032 48.7719C155.032 48.7719 139.506 33.6915 120.009 32.3618C102.229 31.1482 76.0769 29.0706 59.9599 35.0175L59.9587 35.0165ZM161.023 86.5207C162.989 89.0751 166.961 92.5634 173.967 92.5128C181.416 92.4621 185.672 88.1282 187.653 85.3114C178.777 85.7259 169.901 86.1367 161.023 86.5207ZM42.3816 59.0784C46.1292 59.0784 49.1637 64.7383 49.1637 71.7223C49.1637 73.8168 48.8704 75.8297 48.3949 77.8437C49.4742 79.301 50.591 80.0622 52.5279 80.4786C52.1424 82.1494 51.4697 83.7417 50.2975 84.042C48.0449 84.6177 44.8082 84.3662 42.3816 84.3662C38.6361 84.3662 35.5995 78.7082 35.5995 71.7223C35.5995 64.7382 38.6362 59.0784 42.3816 59.0784ZM42.7378 68.5661C42.9513 68.6485 43.1505 68.8078 43.3265 69.024L43.8798 67.1901L44.867 63.9045C45.569 64.6829 46.1578 65.778 46.5753 67.0869L44.8124 68.9307L43.8293 69.9606C43.9446 70.2908 44.0305 70.6638 44.0742 71.0613L45.1576 70.4929L47.1046 69.4728C47.2029 70.1932 47.2554 70.9471 47.2554 71.723C47.2554 72.5014 47.2029 73.2553 47.1046 73.9732L45.1576 72.9549L44.0742 72.3865C44.0299 72.784 43.9446 73.1576 43.8293 73.4873L44.8124 74.5147L46.5753 76.3603C46.1585 77.6692 45.569 78.7645 44.867 79.5428L43.8798 76.2572L43.3265 74.4233C43.1505 74.6388 42.9513 74.7963 42.7378 74.8812L43.0414 76.9032L43.5885 80.532C43.2031 80.7158 42.8005 80.8135 42.3816 80.8135C41.9668 80.8135 41.5602 80.7158 41.1747 80.532L41.7219 76.9032L42.0255 74.8812C41.8119 74.7969 41.6148 74.6394 41.4367 74.4233L40.8834 76.2572L39.8942 79.5428C39.1942 78.7644 38.6054 77.6692 38.1879 76.3603L39.9508 74.5147L40.934 73.4873C40.8187 73.157 40.7327 72.784 40.689 72.3865L39.6056 72.9549L37.6586 73.9732C37.5604 73.2547 37.5078 72.5007 37.5078 71.723C37.5078 70.9464 37.5604 70.1925 37.6586 69.4728L39.6056 70.4929L40.689 71.0613C40.7334 70.6638 40.8187 70.2902 40.934 69.9606L39.9508 68.9307L38.1879 67.0869C38.6047 65.778 39.1942 64.6828 39.8942 63.9045L40.8834 67.1901L41.4367 69.024C41.6148 68.8085 41.8119 68.6491 42.0255 68.5661L41.7219 66.5441L41.1747 62.9152C41.5602 62.7297 41.9668 62.632 42.3816 62.632C42.8005 62.632 43.203 62.7297 43.5885 62.9152L43.0414 66.5441L42.7378 68.5661ZM42.3816 61.7206C45.3453 61.7206 47.7487 66.1991 47.7487 71.7223C47.7487 77.2473 45.3444 81.7259 42.3816 81.7259C39.4179 81.7259 37.0186 77.2473 37.0186 71.7223C37.0186 66.1991 39.4179 61.7206 42.3816 61.7206ZM111.245 62.3732C118.015 62.3732 123.498 69.856 123.498 79.0912C123.498 80.8788 123.391 82.3597 123.051 84.1228C123.734 85.4354 124.661 87.0501 126.252 87.6038C126.663 87.7442 128.103 87.7784 129.819 87.7613C129.748 88.9859 129.773 89.6441 129.417 91.2344C129.063 92.8267 124.114 95.6996 122.27 95.8497C119.212 96.1013 113.857 96.0072 110.621 95.7863C104.147 95.34 98.9978 88.0348 98.9978 79.0917C98.9978 69.8568 104.48 62.3738 111.246 62.3738L111.245 62.3732ZM111.889 74.914C112.276 75.0263 112.635 75.2345 112.954 75.5196L113.951 73.0965L115.737 68.7528C117.007 69.7803 118.069 71.2284 118.822 72.9591L115.64 75.3975L113.863 76.7571C114.071 77.1942 114.223 77.6856 114.303 78.2125L116.263 77.4604L119.78 76.1118C119.958 77.0648 120.052 78.0622 120.052 79.0898C120.052 80.1154 119.958 81.1118 119.78 82.0641L116.263 80.7174L114.303 79.9634C114.223 80.4902 114.071 80.9835 113.863 81.4188L115.64 82.7802L118.822 85.2186C118.069 86.9474 117.007 88.3975 115.737 89.4249L113.951 85.0812L112.954 82.6581C112.635 82.9432 112.277 83.1514 111.889 83.2619L112.44 85.9365L113.427 90.732C112.731 90.9755 112.002 91.105 111.245 91.105C110.493 91.105 109.764 90.9755 109.068 90.732L110.055 85.9365L110.604 83.2619C110.219 83.1514 109.86 82.9432 109.537 82.6581L108.544 85.0812L106.756 89.4249C105.488 88.3974 104.426 86.9474 103.673 85.2186L106.855 82.7802L108.632 81.4188C108.423 80.9835 108.272 80.4902 108.19 79.9634L106.23 80.7174L102.716 82.0641C102.537 81.1111 102.441 80.1154 102.441 79.0898C102.441 78.0624 102.537 77.0642 102.716 76.1118L106.23 77.4604L108.19 78.2125C108.272 77.6856 108.423 77.1942 108.632 76.7571L106.855 75.3975L103.673 72.9591C104.426 71.2284 105.488 69.7803 106.756 68.7528L108.544 73.0965L109.537 75.5196C109.86 75.2345 110.218 75.0263 110.604 74.914L110.055 72.2411L109.068 67.4456C109.764 67.2021 110.493 67.0708 111.245 67.0708C112.002 67.0708 112.731 67.2021 113.427 67.4456L112.44 72.2411L111.889 74.914ZM111.245 65.8634C116.6 65.8634 120.937 71.7859 120.937 79.091C120.937 86.3938 116.6 92.3149 111.245 92.3149C105.895 92.3149 101.556 86.3943 101.556 79.091C101.556 71.7865 105.895 65.8634 111.245 65.8634ZM194.85 69.6405C194.561 71.1088 193.97 74.3816 193.871 77.0879C191.335 75.0812 191.584 71.1637 194.85 69.6405ZM191.366 61.5686C191.714 62.5235 192.423 63.9545 193.171 64.7438C193.085 64.7944 192.467 65.3402 192.383 65.2969C191.126 64.6705 190.776 62.662 191.366 61.5686ZM73.1947 34.056C71.9203 36.7868 68.6005 44.1102 67.3978 48.8549C64.2186 48.6504 61.0789 48.3708 58.015 47.9453C57.5265 47.8793 57.0762 47.8085 56.6566 47.7371C56.9561 44.5809 57.8028 40.6834 59.9095 37.1182C60.0685 36.8484 60.1947 36.6286 60.2909 36.4522C65.757 34.4608 71.2182 34.1115 73.1948 34.0554L73.1947 34.056ZM71.2313 49.065C71.1262 45.8751 71.4244 39.7104 74.6138 34.3093L74.6554 34.2397C77.5118 34.4516 88.4816 33.4687 95.4897 50.4529C87.4836 49.5506 79.2531 49.4535 71.2305 49.0652L71.2313 49.065ZM58.3145 37.2494C57.3375 39.3538 55.5146 43.408 54.1207 47.2059C52.5823 46.8103 51.7629 46.441 51.0084 46.2401C49.0654 45.7224 48.6131 45.3885 49.8118 43.2822C51.0064 41.176 49.8493 41.3226 57.493 37.6278C57.7632 37.4947 58.0361 37.369 58.3144 37.2487L58.3145 37.2494ZM88.636 34.562C88.636 34.562 95.4918 41.1431 97.1449 43.7292C98.7945 46.3152 99.8698 49.4941 99.8698 49.4941L125.39 49.3519L152.982 49.1999C147.093 43.3257 135.197 37.4069 126.96 34.4888C126.96 34.4888 118.215 34.1548 109.037 34.1811C99.065 34.2091 88.5923 34.6011 88.636 34.562ZM155.975 62.7311L156.222 69.0137L163.243 71.8982L184.39 71.6022L190.089 68.5716L189.923 61.477C189.923 61.477 156.14 62.8066 155.974 62.7315L155.975 62.7311ZM156.882 76.6992L149.117 82.6143L192.237 81.1345L187.94 75.3714C187.94 75.3714 156.882 76.626 156.882 76.6993L156.882 76.6992ZM133.385 71.1553L145.071 72.1546L145.112 75.7389L137.844 80.099L131.648 79.9134C131.648 79.9134 133.423 71.1907 133.384 71.1553H133.385ZM147.364 61.3935L126.341 59.5088C126.341 59.5088 121.672 59.1034 123.78 61.7273C125.886 64.3512 125.93 65.6827 135.717 65.7559C145.505 65.831 146.62 66.1631 146.62 66.1631L149.016 64.9439C153.151 64.0325 150.412 63.5483 148.519 62.9109C148.519 62.9109 147.364 61.3225 147.364 61.3939L147.364 61.3935Z" fill="black"/>
<path d="M112.823 94.5875L30.9999 82L112.823 101L192 91.5L112.823 94.5875Z" fill="black"/>
<path d="M127.108 0C184.436 0 230.91 26.622 230.91 59.4619C230.91 81.9855 209.048 101.583 176.817 111.674C204.331 100.98 222.409 82.9165 222.409 62.4346C222.409 29.5949 175.935 2.97266 118.607 2.97266C100.603 2.97268 83.6697 5.59928 68.9101 10.2188C85.5087 3.76892 105.54 2.6218e-05 127.108 0Z" fill="url(#paint0_linear_17_169)"/>
<path d="M129.965 8.91895C176.958 8.91896 215.053 32.5439 215.054 61.6865C215.054 81.6765 197.129 99.0696 170.704 108.023C193.262 98.5335 208.085 82.5034 208.085 64.3252C208.085 35.1825 169.989 11.5576 122.996 11.5576C108.235 11.5576 94.3521 13.8886 82.2519 17.9893C95.8593 12.264 112.282 8.91895 129.965 8.91895Z" fill="black"/>
<path d="M103.769 127.392C46.4591 125.808 0.600094 97.9106 1.33941 65.0811C1.84676 42.5645 24.1432 23.577 56.5915 14.3799C28.8454 24.3107 10.3666 41.8677 9.9051 62.3431C9.16536 95.1728 55.0244 123.071 112.335 124.655C130.338 125.152 147.329 122.993 162.191 118.781C145.45 124.773 125.335 127.988 103.769 127.392Z" fill="url(#paint1_linear_17_169)"/>
<path d="M250.46 48H260.18C263.46 48 265.92 48.88 267.56 50.64C269.2 52.4 270.02 54.98 270.02 58.38V62.52C270.02 65.92 269.2 68.5 267.56 70.26C265.92 72.02 263.46 72.9 260.18 72.9H257.06V90H250.46V48ZM260.18 66.9C261.26 66.9 262.06 66.6 262.58 66C263.14 65.4 263.42 64.38 263.42 62.94V57.96C263.42 56.52 263.14 55.5 262.58 54.9C262.06 54.3 261.26 54 260.18 54H257.06V66.9H260.18Z" fill="black"/>
<path d="M273.604 48H283.384C286.784 48 289.264 48.8 290.824 50.4C292.384 51.96 293.164 54.38 293.164 57.66V60.24C293.164 64.6 291.724 67.36 288.844 68.52V68.64C290.444 69.12 291.564 70.1 292.204 71.58C292.884 73.06 293.224 75.04 293.224 77.52V84.9C293.224 86.1 293.264 87.08 293.344 87.84C293.424 88.56 293.624 89.28 293.944 90H287.224C286.984 89.32 286.824 88.68 286.744 88.08C286.664 87.48 286.624 86.4 286.624 84.84V77.16C286.624 75.24 286.304 73.9 285.664 73.14C285.064 72.38 284.004 72 282.484 72H280.204V90H273.604V48ZM282.604 66C283.924 66 284.904 65.66 285.544 64.98C286.224 64.3 286.564 63.16 286.564 61.56V58.32C286.564 56.8 286.284 55.7 285.724 55.02C285.204 54.34 284.364 54 283.204 54H280.204V66H282.604Z" fill="black"/>
<path d="M297.804 48H304.404V90H297.804V48Z" fill="black"/>
<path d="M307.607 48H314.267L318.587 80.58H318.707L323.027 48H329.087L322.727 90H313.967L307.607 48Z" fill="black"/>
<path d="M335.658 48H344.598L351.438 90H344.838L343.638 81.66V81.78H336.138L334.938 90H328.818L335.658 48ZM342.858 76.08L339.918 55.32H339.798L336.918 76.08H342.858Z" fill="black"/>
<path d="M357.046 54H350.146V48H370.546V54H363.646V90H357.046V54Z" fill="black"/>
<path d="M373.741 48H391.741V54H380.341V65.1H389.401V71.1H380.341V84H391.741V90H373.741V48Z" fill="black"/>
<path d="M405.147 48H411.747V65.1H418.827V48H425.427V90H418.827V71.1H411.747V90H405.147V48Z" fill="black"/>
<path d="M430.343 48H436.943V90H430.343V48Z" fill="black"/>
<path d="M441.886 48H451.666C455.066 48 457.546 48.8 459.106 50.4C460.666 51.96 461.446 54.38 461.446 57.66V60.24C461.446 64.6 460.006 67.36 457.126 68.52V68.64C458.726 69.12 459.846 70.1 460.486 71.58C461.166 73.06 461.506 75.04 461.506 77.52V84.9C461.506 86.1 461.546 87.08 461.626 87.84C461.706 88.56 461.906 89.28 462.226 90H455.506C455.266 89.32 455.106 88.68 455.026 88.08C454.946 87.48 454.906 86.4 454.906 84.84V77.16C454.906 75.24 454.586 73.9 453.946 73.14C453.346 72.38 452.286 72 450.766 72H448.486V90H441.886V48ZM450.886 66C452.206 66 453.186 65.66 453.826 64.98C454.506 64.3 454.846 63.16 454.846 61.56V58.32C454.846 56.8 454.566 55.7 454.006 55.02C453.486 54.34 452.646 54 451.486 54H448.486V66H450.886Z" fill="black"/>
<path d="M466.085 48H484.085V54H472.685V65.1H481.745V71.1H472.685V84H484.085V90H466.085V48Z" fill="black"/>
<path d="M524.019 80.04C524.019 83.3998 523.16 85.9999 521.44 87.8398C519.72 89.6798 517.24 90.5996 514 90.5996C510.76 90.5996 508.279 89.6798 506.559 87.8398C505.942 87.1791 505.438 86.4192 505.042 85.5625C507.104 84.8733 509.22 84.1882 511.39 83.5078C511.959 84.2357 512.829 84.5996 514 84.5996C515.909 84.5996 517.017 83.6326 517.328 81.6982C519.508 81.0531 521.739 80.4147 524.019 79.7822V80.04ZM685.333 80.04C685.333 83.4 684.473 85.9999 682.753 87.8398C681.033 89.6797 678.553 90.5996 675.313 90.5996C672.073 90.5996 669.593 89.6798 667.873 87.8398C666.153 85.9999 665.293 83.3999 665.293 80.04V59.5879C667.476 59.5013 669.677 59.4223 671.893 59.3516V80.46C671.893 83.22 673.033 84.5996 675.313 84.5996C677.593 84.5995 678.733 83.2199 678.733 80.46V59.1621C680.917 59.1096 683.117 59.0651 685.333 59.0283V80.04ZM539.283 90H532.684V77.4756C534.843 76.9242 537.043 76.379 539.283 75.8418V90ZM575.687 71.0996H566.628V84H578.028V90H560.028V71.333C565.078 70.3423 570.298 69.3918 575.687 68.4902V71.0996ZM605.032 64.2969C604.371 66.3659 603.116 67.7736 601.265 68.5195V68.6396C602.865 69.1196 603.985 70.1001 604.625 71.5801C605.305 73.06 605.644 75.0398 605.644 77.5195V84.9004C605.644 86.1001 605.685 87.08 605.765 87.8398C605.845 88.5598 606.045 89.28 606.365 90H599.644C599.404 89.3201 599.245 88.68 599.165 88.0801C599.085 87.4801 599.045 86.3998 599.045 84.8398V77.1602C599.045 75.2402 598.725 73.8996 598.085 73.1396C597.485 72.3798 596.425 72.0001 594.905 72H592.625V90H586.024V66.8535C588.199 66.528 590.399 66.2097 592.625 65.9004V66H595.024C596.182 66 597.077 65.7376 597.712 65.2148C600.123 64.8992 602.563 64.5926 605.032 64.2969ZM635.304 90H628.704L627.504 81.6602V81.7803H620.004L618.804 90H612.684L617.087 62.96C618.936 62.7711 620.8 62.5893 622.68 62.4121L620.784 76.0801H626.724L624.761 62.2197C626.722 62.0405 628.7 61.8664 630.694 61.7002L635.304 90ZM651.712 90H645.112V60.6367C647.294 60.4961 649.494 60.3638 651.712 60.2393V90ZM700.597 58.9023V66H702.997C704.317 65.9999 705.297 65.6602 705.936 64.9805C706.616 64.3005 706.957 63.1596 706.957 61.5596V58.9229C709.143 58.9377 711.343 58.9619 713.557 58.9922V60.2402C713.557 64.6001 712.116 67.3596 709.236 68.5195V68.6396C710.836 69.1196 711.957 70.1001 712.597 71.5801C713.277 73.06 713.617 75.0398 713.617 77.5195V84.9004C713.617 86.1001 713.656 87.08 713.736 87.8398C713.816 88.5598 714.017 89.28 714.337 90H707.617C707.377 89.32 707.217 88.6801 707.137 88.0801C707.057 87.4801 707.017 86.3998 707.017 84.8398V77.1602C707.017 75.2402 706.697 73.8996 706.057 73.1396C705.457 72.3798 704.397 72 702.877 72H700.597V90H693.997V58.9248C696.182 58.9094 698.382 58.9022 700.597 58.9023ZM514 47.4004C517.24 47.4004 519.72 48.3202 521.44 50.1602C523.16 52.0001 524.019 54.6002 524.019 57.96V76.6211C521.803 77.2997 519.603 77.9966 517.42 78.7148V57.54C517.42 54.78 516.28 53.4004 514 53.4004C511.72 53.4004 510.58 54.78 510.58 57.54V80.46C510.58 80.6628 510.588 80.858 510.601 81.0459C508.486 81.7957 506.39 82.5655 504.312 83.3555C504.092 82.3476 503.979 81.2427 503.979 80.04V57.96C503.979 54.6002 504.84 52.0001 506.559 50.1602C508.279 48.3202 510.76 47.4004 514 47.4004ZM542.403 48C545.683 48 548.143 48.8798 549.783 50.6396C551.423 52.3996 552.243 54.9799 552.243 58.3799V62.5195C552.243 65.5294 551.599 67.8955 550.313 69.6201C544.352 70.9889 538.47 72.4775 532.684 74.0898V48H542.403ZM578.028 54H566.628V65.0996H572.597C568.379 65.8495 564.188 66.6517 560.028 67.5078V48H578.028V54ZM539.283 66.9004H542.403C543.483 66.9004 544.284 66.6 544.804 66C545.363 65.4 545.643 64.3801 545.643 62.9404V57.96C545.643 56.5203 545.363 55.5004 544.804 54.9004C544.284 54.3004 543.483 54 542.403 54H539.283V66.9004ZM595.805 48C599.205 48 601.685 48.8004 603.245 50.4004C604.805 51.9604 605.585 54.3804 605.585 57.6602V60.2402C605.585 60.2605 605.584 60.2806 605.584 60.3008C603.381 60.555 601.181 60.82 598.984 61.0986V58.3203C598.984 56.8003 598.704 55.6995 598.144 55.0195C597.624 54.3399 596.785 54 595.625 54H592.625V61.9414C590.42 62.2463 588.22 62.5637 586.024 62.8945V48H595.805ZM630.085 57.957C628.132 58.1068 626.178 58.2656 624.225 58.4326L623.784 55.3203H623.664L623.22 58.5195C621.389 58.6788 619.558 58.8447 617.728 59.0195L619.524 48H628.464L630.085 57.957ZM658.612 54H651.712V56.6338C649.515 56.7353 647.315 56.8482 645.112 56.9697V54H638.212V48H658.612V54ZM703.776 48C707.176 48 709.657 48.8004 711.217 50.4004C712.53 51.7139 713.289 53.6371 713.496 56.1699C711.224 56.1039 708.938 56.0469 706.641 55.998C706.508 55.6092 706.334 55.2826 706.117 55.0195C705.597 54.3396 704.757 54 703.597 54H700.597V55.8906C698.407 55.8593 696.206 55.8368 693.997 55.8223V48H703.776ZM675.313 47.4004C678.553 47.4004 681.033 48.3203 682.753 50.1602C684.086 51.5865 684.899 53.4698 685.199 55.8096C682.991 55.8181 680.775 55.8359 678.553 55.8623C678.15 54.2211 677.072 53.4005 675.313 53.4004C673.519 53.4004 672.43 54.2549 672.048 55.9648C669.833 56.009 667.612 56.0629 665.387 56.126C665.651 53.6389 666.48 51.6503 667.873 50.1602C669.593 48.3202 672.073 47.4004 675.313 47.4004Z" fill="#E13404"/>
<defs>
<linearGradient id="paint0_linear_17_169" x1="149.91" y1="0" x2="149.91" y2="111.674" gradientUnits="userSpaceOnUse">
<stop/>
<stop offset="1" stop-color="#E13404"/>
</linearGradient>
<linearGradient id="paint1_linear_17_169" x1="83.4958" y1="15.1235" x2="80.4109" y2="126.746" gradientUnits="userSpaceOnUse">
<stop stop-color="#E13404"/>
<stop offset="1"/>
</linearGradient>
</defs>
</svg>
