<svg width="517" height="261" viewBox="0 0 517 261" fill="none" xmlns="http://www.w3.org/2000/svg">
<path fill-rule="evenodd" clip-rule="evenodd" d="M172.755 31.8085C147.523 40.3573 148.297 47.2006 140.882 48.9115C133.469 50.6225 126.966 48.3774 126.574 60.026C126.181 71.6772 123.452 71.8917 124.099 75.206C124.752 78.5203 126.181 87.929 129.432 89.3152C132.683 90.7065 133.072 90.3861 133.072 90.3861L133.096 90.3402C132.855 88.7237 132.726 87.0286 132.726 85.2876C132.726 73.8502 138.255 64.5852 145.077 64.5852C151.899 64.5852 157.43 73.8499 157.43 85.2876C157.43 88.1842 157.07 90.9425 156.427 93.4515C157.318 94.5577 159.219 96.047 163.121 96.3729C169.5 96.9044 219.839 100.33 228.685 101.401C230.123 101.572 231.355 101.715 232.408 101.838C232.057 99.9176 231.869 97.9188 231.869 95.86C231.869 81.0649 241.567 69.0683 253.524 69.0683C265.489 69.0683 275.187 81.0638 275.187 95.86C275.187 98.1758 274.949 100.424 274.503 102.565C275.18 103.763 276.444 105.611 277.989 106.101C280.332 106.85 380.107 102.47 380.107 102.47C380.107 102.47 385.963 100.759 385.313 95.7355C384.626 90.5168 387.666 84.4667 386.864 80.0752C386.525 77.9757 386.208 75.3068 384.125 74.334C381.639 73.1757 381.405 69.5391 380.623 67.4724C380.125 64.0901 363.486 59.2247 360.469 58.3267C338.873 51.9127 322.482 51.7009 322.482 51.7009C322.482 51.7009 298.031 29.8923 267.326 27.9694C239.325 26.2143 198.139 23.2098 172.757 31.8099L172.755 31.8085ZM331.917 106.292C335.013 109.986 341.268 115.03 352.302 114.957C364.032 114.884 370.736 108.616 373.855 104.543C359.877 105.142 345.898 105.736 331.917 106.292ZM145.074 66.6057C150.976 66.6057 155.755 74.7908 155.755 84.8907C155.755 87.9198 155.293 90.8306 154.544 93.7432C156.244 95.8506 158.003 96.9515 161.053 97.5536C160.446 99.9699 159.387 102.273 157.541 102.707C153.993 103.54 148.896 103.176 145.074 103.176C139.176 103.176 134.393 94.9934 134.393 84.8907C134.393 74.7906 139.176 66.6057 145.074 66.6057ZM145.635 80.3263C145.971 80.4455 146.285 80.676 146.562 80.9885L147.434 78.3365L148.988 73.585C150.094 74.7106 151.021 76.2944 151.679 78.1873L148.902 80.8536L147.354 82.343C147.536 82.8206 147.671 83.36 147.74 83.9348L149.446 83.1128L152.512 81.6376C152.667 82.6794 152.75 83.7697 152.75 84.8917C152.75 86.0174 152.667 87.1077 152.512 88.1459L149.446 86.6733L147.74 85.8513C147.67 86.4261 147.536 86.9664 147.354 87.4431L148.902 88.929L151.679 91.598C151.022 93.4909 150.094 95.0748 148.988 96.2003L147.434 91.4488L146.562 88.7968C146.285 89.1084 145.971 89.3362 145.635 89.4589L146.113 92.3831L146.975 97.6309C146.368 97.8967 145.734 98.0379 145.074 98.0379C144.421 98.0379 143.781 97.8967 143.174 97.6309L144.035 92.3831L144.513 89.4589C144.177 89.3371 143.867 89.1093 143.586 88.7968L142.715 91.4488L141.157 96.2003C140.054 95.0747 139.127 93.4909 138.47 91.598L141.246 88.929L142.794 87.4431C142.613 86.9655 142.477 86.4261 142.409 85.8513L140.702 86.6733L137.636 88.1459C137.481 87.1067 137.399 86.0164 137.399 84.8917C137.399 83.7687 137.481 82.6784 137.636 81.6376L140.702 83.1128L142.409 83.9348C142.478 83.36 142.613 82.8197 142.794 82.343L141.246 80.8536L138.47 78.1873C139.126 76.2944 140.054 74.7105 141.157 73.585L142.715 78.3365L143.586 80.9885C143.867 80.6768 144.177 80.4464 144.513 80.3263L144.035 77.4022L143.174 72.1543C143.781 71.886 144.421 71.7447 145.074 71.7447C145.734 71.7447 146.368 71.886 146.975 72.1543L146.113 77.4022L145.635 80.3263ZM145.074 70.4267C149.742 70.4267 153.527 76.9034 153.527 84.8907C153.527 92.8808 149.74 99.3574 145.074 99.3574C140.407 99.3574 136.628 92.8808 136.628 84.8907C136.628 76.9034 140.407 70.4267 145.074 70.4267ZM253.524 71.3705C264.186 71.3705 272.82 82.1918 272.82 95.5472C272.82 98.1324 272.651 100.274 272.117 102.824C273.193 104.722 274.652 107.057 277.157 107.858C277.804 108.061 280.072 108.11 282.775 108.086C282.664 109.857 282.702 110.808 282.142 113.108C281.584 115.411 273.791 119.566 270.886 119.783C266.07 120.146 257.637 120.01 252.541 119.691C242.346 119.046 234.236 108.481 234.236 95.548C234.236 82.1929 242.87 71.3713 253.525 71.3713L253.524 71.3705ZM254.538 89.5063C255.148 89.6688 255.713 89.9698 256.215 90.3821L257.786 86.878L260.597 80.5964C262.598 82.0823 264.271 84.1765 265.456 86.6793L260.446 90.2056L257.647 92.1718C257.974 92.8039 258.214 93.5146 258.34 94.2765L261.426 93.1888L266.964 91.2386C267.245 92.6167 267.393 94.0592 267.393 95.5453C267.393 97.0285 267.245 98.4694 266.964 99.8465L261.426 97.8989L258.34 96.8086C258.214 97.5705 257.974 98.2839 257.647 98.9134L260.446 100.882L265.456 104.408C264.271 106.909 262.598 109.006 260.597 110.491L257.786 104.21L256.215 100.706C255.713 101.118 255.149 101.419 254.538 101.579L255.406 105.447L256.96 112.382C255.864 112.734 254.716 112.921 253.524 112.921C252.339 112.921 251.191 112.734 250.095 112.382L251.65 105.447L252.514 101.579C251.907 101.419 251.342 101.118 250.834 100.706L249.27 104.21L246.455 110.491C244.457 109.006 242.784 106.909 241.6 104.408L246.61 100.882L249.409 98.9134C249.079 98.2839 248.841 97.5705 248.712 96.8086L245.627 97.8989L240.091 99.8465C239.811 98.4684 239.659 97.0284 239.659 95.5453C239.659 94.0594 239.811 92.6159 240.091 91.2386L245.627 93.1888L248.712 94.2765C248.841 93.5146 249.079 92.8039 249.409 92.1718L246.61 90.2056L241.6 86.6793C242.785 84.1765 244.458 82.0822 246.455 80.5964L249.27 86.878L250.834 90.3821C251.342 89.9698 251.906 89.6688 252.514 89.5063L251.65 85.641L250.095 78.706C251.191 78.3537 252.339 78.1639 253.524 78.1639C254.716 78.1639 255.865 78.3537 256.96 78.706L255.406 85.641L254.538 89.5063ZM253.524 76.4178C261.958 76.4178 268.786 84.9827 268.786 95.547C268.786 106.108 261.958 114.671 253.524 114.671C245.098 114.671 238.265 106.109 238.265 95.547C238.265 84.9836 245.098 76.4178 253.524 76.4178ZM385.189 81.8802C384.733 84.0034 383.803 88.7365 383.647 92.6502C379.653 89.7482 380.046 84.0829 385.189 81.8802ZM379.703 70.207C380.251 71.5878 381.366 73.6573 382.545 74.7987C382.41 74.872 381.436 75.6612 381.304 75.5986C379.324 74.6927 378.773 71.7882 379.703 70.207ZM193.6 30.4194C191.593 34.3686 186.365 44.9594 184.471 51.8209C179.464 51.5252 174.52 51.1208 169.694 50.5055C168.925 50.4101 168.216 50.3077 167.555 50.2044C168.027 45.6401 169.36 40.0037 172.678 34.8479C172.928 34.4576 173.127 34.1398 173.279 33.8847C181.887 31.0048 190.488 30.4997 193.6 30.4185L193.6 30.4194ZM190.508 52.1247C190.343 47.5117 190.812 38.5966 195.835 30.7858L195.901 30.6851C200.399 30.9915 217.675 29.5701 228.712 54.1319C216.103 52.827 203.141 52.6866 190.507 52.1251L190.508 52.1247ZM170.166 35.0376C168.628 38.0808 165.757 43.9439 163.562 49.4363C161.139 48.8642 159.848 48.33 158.66 48.0396C155.6 47.2909 154.888 46.808 156.776 43.762C158.657 40.716 156.835 40.928 168.872 35.5848C169.298 35.3923 169.728 35.2105 170.166 35.0366L170.166 35.0376ZM217.918 31.1512C217.918 31.1512 228.715 40.6685 231.318 44.4083C233.916 48.1482 235.609 52.7453 235.609 52.7453L275.8 52.5396L319.253 52.3198C309.978 43.8248 291.244 35.2654 278.273 31.0453C278.273 31.0453 264.5 30.5624 250.047 30.6003C234.342 30.6409 217.849 31.2078 217.918 31.1512ZM323.967 71.8881L324.356 80.9736L335.413 85.1452L368.716 84.717L377.691 80.3343L377.429 70.0744C377.429 70.0744 324.226 71.9973 323.965 71.8887L323.967 71.8881ZM325.396 92.0881L313.167 100.642L381.074 98.5022L374.307 90.1679C374.307 90.1679 325.395 91.9822 325.395 92.0881L325.396 92.0881ZM288.39 84.0707L306.794 85.5159L306.86 90.6993L295.413 97.0047L285.656 96.7363C285.656 96.7363 288.451 84.122 288.389 84.0707H288.39ZM310.405 69.9536L277.297 67.2281C277.297 67.2281 269.944 66.6419 273.264 70.4364C276.581 74.2309 276.65 76.1566 292.064 76.2623C307.478 76.3709 309.235 76.8512 309.235 76.8512L313.007 75.0881C319.519 73.77 315.205 73.0699 312.225 72.1481C312.225 72.1481 310.406 69.8509 310.406 69.9542L310.405 69.9536Z" fill="black"/>
<path d="M256.595 116.888L127 99L256.595 126L382 112.5L256.595 116.888Z" fill="black"/>
<path d="M73.5 173V138H89.5C92.7 138 95.45 138.517 97.75 139.55C100.083 140.583 101.883 142.083 103.15 144.05C104.417 145.983 105.05 148.283 105.05 150.95C105.05 153.583 104.417 155.867 103.15 157.8C101.883 159.733 100.083 161.233 97.75 162.3C95.45 163.333 92.7 163.85 89.5 163.85H79L83.4 159.55V173H73.5ZM83.4 160.6L79 156.05H88.9C90.9667 156.05 92.5 155.6 93.5 154.7C94.5334 153.8 95.05 152.55 95.05 150.95C95.05 149.317 94.5334 148.05 93.5 147.15C92.5 146.25 90.9667 145.8 88.9 145.8H79L83.4 141.25V160.6ZM109.877 173V138H125.877C129.077 138 131.827 138.517 134.127 139.55C136.46 140.583 138.26 142.083 139.527 144.05C140.794 145.983 141.427 148.283 141.427 150.95C141.427 153.583 140.794 155.867 139.527 157.8C138.26 159.7 136.46 161.167 134.127 162.2C131.827 163.2 129.077 163.7 125.877 163.7H115.377L119.777 159.55V173H109.877ZM131.527 173L122.827 160.25H133.377L142.127 173H131.527ZM119.777 160.6L115.377 156.05H125.277C127.344 156.05 128.877 155.6 129.877 154.7C130.91 153.8 131.427 152.55 131.427 150.95C131.427 149.317 130.91 148.05 129.877 147.15C128.877 146.25 127.344 145.8 125.277 145.8H115.377L119.777 141.25V160.6ZM146.889 173V138H156.789V173H146.889ZM174.484 173L159.534 138H170.234L182.834 168.3H176.534L189.434 138H199.234L184.234 173H174.484ZM195.863 173L211.313 138H221.063L236.563 173H226.263L214.163 142.85H218.063L205.963 173H195.863ZM204.313 166.2L206.863 158.9H223.963L226.513 166.2H204.313ZM245.061 173V145.85H234.311V138H265.661V145.85H254.961V173H245.061ZM278.45 151.55H294.7V158.95H278.45V151.55ZM279.15 165.35H297.45V173H269.35V138H296.8V145.65H279.15V165.35ZM340.894 138H350.794V173H340.894V138ZM327.394 173H317.494V138H327.394V173ZM341.594 159.35H326.694V151.15H341.594V159.35ZM357.777 173V138H367.677V173H357.777ZM374.721 173V138H390.721C393.921 138 396.671 138.517 398.971 139.55C401.304 140.583 403.104 142.083 404.371 144.05C405.637 145.983 406.271 148.283 406.271 150.95C406.271 153.583 405.637 155.867 404.371 157.8C403.104 159.7 401.304 161.167 398.971 162.2C396.671 163.2 393.921 163.7 390.721 163.7H380.221L384.621 159.55V173H374.721ZM396.371 173L387.671 160.25H398.221L406.971 173H396.371ZM384.621 160.6L380.221 156.05H390.121C392.187 156.05 393.721 155.6 394.721 154.7C395.754 153.8 396.271 152.55 396.271 150.95C396.271 149.317 395.754 148.05 394.721 147.15C393.721 146.25 392.187 145.8 390.121 145.8H380.221L384.621 141.25V160.6ZM420.832 151.55H437.082V158.95H420.832V151.55ZM421.532 165.35H439.832V173H411.732V138H439.182V145.65H421.532V165.35Z" fill="black"/>
<path d="M149.785 225.716C147.385 225.716 145.15 225.304 143.08 224.482C141.04 223.66 139.27 222.517 137.77 221.055C136.27 219.562 135.1 217.826 134.26 215.846C133.42 213.866 133 211.703 133 209.358C133 207.012 133.42 204.85 134.26 202.87C135.1 200.89 136.27 199.168 137.77 197.706C139.27 196.214 141.04 195.056 143.08 194.234C145.12 193.411 147.355 193 149.785 193C152.185 193 154.39 193.411 156.4 194.234C158.44 195.026 160.21 196.168 161.71 197.661C163.24 199.123 164.41 200.844 165.22 202.824C166.06 204.804 166.48 206.982 166.48 209.358C166.48 211.734 166.06 213.912 165.22 215.892C164.41 217.872 163.24 219.608 161.71 221.101C160.21 222.563 158.44 223.705 156.4 224.528C154.39 225.32 152.185 225.716 149.785 225.716ZM149.785 221.649C151.525 221.649 153.13 221.344 154.6 220.735C156.1 220.126 157.39 219.273 158.47 218.176C159.58 217.049 160.435 215.74 161.035 214.247C161.665 212.754 161.98 211.125 161.98 209.358C161.98 207.591 161.665 205.961 161.035 204.469C160.435 202.976 159.58 201.682 158.47 200.585C157.39 199.458 156.1 198.59 154.6 197.98C153.13 197.371 151.525 197.067 149.785 197.067C148.015 197.067 146.38 197.371 144.88 197.98C143.41 198.59 142.12 199.458 141.01 200.585C139.9 201.682 139.03 202.976 138.4 204.469C137.8 205.961 137.5 207.591 137.5 209.358C137.5 211.125 137.8 212.754 138.4 214.247C139.03 215.74 139.9 217.049 141.01 218.176C142.12 219.273 143.41 220.126 144.88 220.735C146.38 221.344 148.015 221.649 149.785 221.649Z" fill="#E13404"/>
<path d="M174.258 225.35V193.366H186.543C189.303 193.366 191.658 193.807 193.608 194.691C195.558 195.574 197.058 196.853 198.108 198.529C199.158 200.204 199.683 202.199 199.683 204.514C199.683 206.83 199.158 208.825 198.108 210.5C197.058 212.145 195.558 213.424 193.608 214.338C191.658 215.222 189.303 215.663 186.543 215.663H176.733L178.758 213.516V225.35H174.258ZM178.758 213.973L176.733 211.688H186.408C189.288 211.688 191.463 211.064 192.933 209.815C194.433 208.566 195.183 206.799 195.183 204.514C195.183 202.23 194.433 200.463 192.933 199.214C191.463 197.965 189.288 197.341 186.408 197.341H176.733L178.758 195.056V213.973Z" fill="#E13404"/>
<path d="M211.289 207.165H227.489V211.048H211.289V207.165ZM211.694 221.375H230.054V225.35H207.194V193.366H229.424V197.341H211.694V221.375Z" fill="#E13404"/>
<path d="M238.241 225.35V193.366H250.526C253.286 193.366 255.641 193.807 257.591 194.691C259.541 195.574 261.041 196.853 262.091 198.529C263.141 200.204 263.666 202.199 263.666 204.514C263.666 206.83 263.141 208.825 262.091 210.5C261.041 212.145 259.541 213.409 257.591 214.293C255.641 215.176 253.286 215.618 250.526 215.618H240.716L242.741 213.516V225.35H238.241ZM259.301 225.35L251.291 213.744H256.106L264.206 225.35H259.301ZM242.741 213.973L240.716 211.734H250.391C253.271 211.734 255.446 211.109 256.916 209.86C258.416 208.581 259.166 206.799 259.166 204.514C259.166 202.23 258.416 200.463 256.916 199.214C255.446 197.965 253.271 197.341 250.391 197.341H240.716L242.741 195.056V213.973Z" fill="#E13404"/>
<path d="M267.066 225.35L281.331 193.366H285.786L300.096 225.35H295.371L282.636 195.924H284.436L271.701 225.35H267.066ZM273.141 217.354L274.356 213.699H292.086L293.391 217.354H273.141Z" fill="#E13404"/>
<path d="M310.368 225.35V197.341H299.568V193.366H325.623V197.341H314.823V225.35H310.368Z" fill="#E13404"/>
<path d="M345.205 225.716C342.805 225.716 340.57 225.304 338.5 224.482C336.46 223.66 334.69 222.517 333.19 221.055C331.69 219.562 330.52 217.826 329.68 215.846C328.84 213.866 328.42 211.703 328.42 209.358C328.42 207.012 328.84 204.85 329.68 202.87C330.52 200.89 331.69 199.168 333.19 197.706C334.69 196.214 336.46 195.056 338.5 194.234C340.54 193.411 342.775 193 345.205 193C347.605 193 349.81 193.411 351.82 194.234C353.86 195.026 355.63 196.168 357.13 197.661C358.66 199.123 359.83 200.844 360.64 202.824C361.48 204.804 361.9 206.982 361.9 209.358C361.9 211.734 361.48 213.912 360.64 215.892C359.83 217.872 358.66 219.608 357.13 221.101C355.63 222.563 353.86 223.705 351.82 224.528C349.81 225.32 347.605 225.716 345.205 225.716ZM345.205 221.649C346.945 221.649 348.55 221.344 350.02 220.735C351.52 220.126 352.81 219.273 353.89 218.176C355 217.049 355.855 215.74 356.455 214.247C357.085 212.754 357.4 211.125 357.4 209.358C357.4 207.591 357.085 205.961 356.455 204.469C355.855 202.976 355 201.682 353.89 200.585C352.81 199.458 351.52 198.59 350.02 197.98C348.55 197.371 346.945 197.067 345.205 197.067C343.435 197.067 341.8 197.371 340.3 197.98C338.83 198.59 337.54 199.458 336.43 200.585C335.32 201.682 334.45 202.976 333.82 204.469C333.22 205.961 332.92 207.591 332.92 209.358C332.92 211.125 333.22 212.754 333.82 214.247C334.45 215.74 335.32 217.049 336.43 218.176C337.54 219.273 338.83 220.126 340.3 220.735C341.8 221.344 343.435 221.649 345.205 221.649Z" fill="#E13404"/>
<path d="M369.678 225.35V193.366H381.963C384.723 193.366 387.078 193.807 389.028 194.691C390.978 195.574 392.478 196.853 393.528 198.529C394.578 200.204 395.103 202.199 395.103 204.514C395.103 206.83 394.578 208.825 393.528 210.5C392.478 212.145 390.978 213.409 389.028 214.293C387.078 215.176 384.723 215.618 381.963 215.618H372.153L374.178 213.516V225.35H369.678ZM390.738 225.35L382.728 213.744H387.543L395.199 225.35H393.152H390.738ZM374.178 213.973L372.153 211.734H381.828C384.708 211.734 386.883 211.109 388.353 209.86C389.853 208.581 390.603 206.799 390.603 204.514C390.603 202.23 389.853 200.463 388.353 199.214C386.883 197.965 384.708 197.341 381.828 197.341H372.153L374.178 195.056V213.973Z" fill="#E13404"/>
<path d="M284.092 0C412.222 0 516.092 53.7258 516.092 120C516.092 165.457 467.226 205.009 395.183 225.372C456.683 203.79 497.092 167.337 497.092 126C497.092 59.7258 393.222 6 265.092 6C224.845 6 186.992 11.3015 154 20.627C191.102 7.6071 235.879 0 284.092 0Z" fill="url(#paint0_linear_17_132)"/>
<path d="M231.928 257.09C103.838 253.893 1.3403 197.593 2.99363 131.339C4.12765 85.8964 53.9654 47.5759 126.494 29.0163C64.4746 49.0571 23.1686 84.4913 22.1374 125.815C20.4841 192.069 122.981 248.369 251.072 251.565C291.306 252.57 329.279 248.214 362.494 239.714C325.079 251.805 280.125 258.292 231.928 257.09Z" fill="url(#paint1_linear_17_132)"/>
<defs>
<linearGradient id="paint0_linear_17_132" x1="335.046" y1="0" x2="335.046" y2="225.372" gradientUnits="userSpaceOnUse">
<stop/>
<stop offset="1" stop-color="#E13404"/>
</linearGradient>
<linearGradient id="paint1_linear_17_132" x1="186.612" y1="30.5166" x2="180.99" y2="255.818" gradientUnits="userSpaceOnUse">
<stop stop-color="#E13404"/>
<stop offset="1"/>
</linearGradient>
</defs>
</svg>
