<svg width="739" height="557" viewBox="0 0 739 557" fill="none" xmlns="http://www.w3.org/2000/svg">
<ellipse cx="292.095" cy="530.162" rx="33.5884" ry="21.081" fill="#E13404"/>
<ellipse cx="292.095" cy="530.162" rx="33.5884" ry="21.081" fill="#FCFCFC" fill-opacity="0.5"/>
<ellipse cx="292.095" cy="530.162" rx="28.6271" ry="17.9671" fill="#E13404"/>
<ellipse cx="292.095" cy="530.162" rx="28.6271" ry="17.9671" fill="#FCFCFC" fill-opacity="0.36"/>
<ellipse cx="292.095" cy="530.162" rx="23.6738" ry="14.8584" fill="#E13404"/>
<ellipse cx="292.095" cy="530.162" rx="23.6738" ry="14.8584" fill="#FCFCFC" fill-opacity="0.2"/>
<ellipse cx="292.095" cy="530.162" rx="19.2467" ry="12.0798" fill="#E13404"/>
<ellipse cx="292.095" cy="530.162" rx="13.475" ry="8.45728" fill="#FCFCFC"/>
<path d="M225.089 203.199L375.087 297.356C380.01 300.446 380.098 307.589 375.254 310.8L174.615 443.796C169.738 447.028 169.867 454.231 174.857 457.286L282.089 522.949" stroke="url(#paint0_linear_49_393)" stroke-width="8"/>
<g filter="url(#filter0_d_49_393)">
<path d="M317.382 294.999L171.95 388.012C169.303 389.705 165.91 389.692 163.276 387.978L10.138 288.335C5.33218 285.208 5.27946 278.19 10.0378 274.991L144.995 184.262C147.562 182.537 150.892 182.445 153.55 184.027L317.163 281.384C322.278 284.428 322.396 291.792 317.382 294.999Z" fill="#FAFAFA"/>
</g>
<path d="M41.4589 281.113L69.6625 297.397V264.83L41.4589 248.547V281.113Z" fill="#EFEFEF"/>
<path d="M97.866 281.113V248.547L69.6625 264.83V297.397L97.866 281.113Z" fill="#D9D9D9"/>
<path d="M97.866 248.547L69.6624 232.263L41.4589 248.547L69.6624 264.83L97.866 248.547Z" fill="#FCFCFC"/>
<path d="M41.4589 248.547L69.6624 264.83V232.263L41.4589 215.98V248.547Z" fill="#EFEFEF"/>
<path d="M97.866 248.547V215.98L69.6625 232.263V264.83L97.866 248.547Z" fill="#D9D9D9"/>
<path d="M97.866 215.98L69.6625 199.697L41.4589 215.98L69.6625 232.263L97.866 215.98Z" fill="#FCFCFC"/>
<path d="M107.757 220.144L135.961 236.428V203.861L107.757 187.578V220.144Z" fill="#EFEFEF"/>
<path d="M164.164 220.144V187.578L135.961 203.861V236.428L164.164 220.144Z" fill="#D9D9D9"/>
<path d="M164.164 187.578L135.961 171.294L107.757 187.578L135.961 203.861L164.164 187.578Z" fill="#FCFCFC"/>
<path d="M107.757 189.579L135.961 205.862V173.296L107.757 157.012V189.579Z" fill="#EFEFEF"/>
<path d="M164.164 189.579V157.012L135.961 173.296V205.862L164.164 189.579Z" fill="#D9D9D9"/>
<path d="M164.164 157.012L135.961 140.729L107.757 157.012L135.961 173.296L164.164 157.012Z" fill="#FCFCFC"/>
<path d="M107.757 183.948L135.961 200.231V167.665L107.757 151.381V183.948Z" fill="#EFEFEF"/>
<path d="M164.164 183.948V151.381L135.961 167.665V200.231L164.164 183.948Z" fill="#D9D9D9"/>
<path d="M164.164 151.381L135.961 135.098L107.757 151.381L135.961 167.665L164.164 151.381Z" fill="#FCFCFC"/>
<path d="M92.1859 313.97L120.389 330.253V297.686L92.1859 281.403V313.97Z" fill="#EFEFEF"/>
<path d="M148.593 313.97V281.403L120.39 297.686V330.253L148.593 313.97Z" fill="#D9D9D9"/>
<path d="M148.593 281.403L120.389 265.12L92.1859 281.403L120.389 297.686L148.593 281.403Z" fill="#FCFCFC"/>
<path d="M92.1859 281.403L120.389 297.686V265.12L92.1859 248.836V281.403Z" fill="#EFEFEF"/>
<path d="M148.593 281.403V248.836L120.39 265.12V297.686L148.593 281.403Z" fill="#D9D9D9"/>
<path d="M148.593 248.836L120.389 232.553L92.1859 248.836L120.389 265.12L148.593 248.836Z" fill="#FCFCFC"/>
<path d="M143.227 354.388L171.43 370.672V338.105L143.227 321.822V354.388Z" fill="#EFEFEF"/>
<path d="M199.634 354.388V321.822L171.43 338.105V370.672L199.634 354.388Z" fill="#D9D9D9"/>
<path d="M199.634 321.822L171.43 305.538L143.227 321.822L171.43 338.105L199.634 321.822Z" fill="#FCFCFC"/>
<path d="M143.227 321.822L171.43 338.105V305.538L143.227 289.255V321.822Z" fill="#EFEFEF"/>
<path d="M199.634 321.822V289.255L171.43 305.538V338.105L199.634 321.822Z" fill="#D9D9D9"/>
<path d="M199.634 289.255L171.43 272.972L143.227 289.255L171.43 305.538L199.634 289.255Z" fill="#FCFCFC"/>
<path d="M155.643 265.721L183.847 282.004V249.438L155.643 233.154V265.721Z" fill="#EFEFEF"/>
<path d="M212.05 265.721V233.154L183.847 249.438V282.004L212.05 265.721Z" fill="#D9D9D9"/>
<path d="M212.05 233.154L183.847 216.871L155.643 233.154L183.847 249.438L212.05 233.154Z" fill="#FCFCFC"/>
<path d="M155.643 235.155L183.847 251.439V218.872L155.643 202.589V235.155Z" fill="#EFEFEF"/>
<path d="M212.05 235.155V202.589L183.847 218.872V251.439L212.05 235.155Z" fill="#D9D9D9"/>
<path d="M212.05 202.589L183.847 186.305L155.643 202.589L183.847 218.872L212.05 202.589Z" fill="#FCFCFC"/>
<path d="M155.643 229.525L183.847 245.808V213.241L155.643 196.958V229.525Z" fill="#EFEFEF"/>
<path d="M212.05 229.525V196.958L183.847 213.241V245.808L212.05 229.525Z" fill="#D9D9D9"/>
<path d="M212.05 196.958L183.847 180.675L155.643 196.958L183.847 213.241L212.05 196.958Z" fill="#FCFCFC"/>
<path d="M202.685 310.755L230.889 327.038V294.472L202.685 278.188V310.755Z" fill="#EFEFEF"/>
<path d="M259.092 310.755V278.188L230.889 294.472V327.038L259.092 310.755Z" fill="#D9D9D9"/>
<path d="M259.093 278.188L230.889 261.905L202.685 278.188L230.889 294.472L259.093 278.188Z" fill="#FCFCFC"/>
<path d="M202.685 280.189L230.889 296.473V263.906L202.685 247.623V280.189Z" fill="#EFEFEF"/>
<path d="M259.092 280.189V247.623L230.889 263.906V296.473L259.092 280.189Z" fill="#D9D9D9"/>
<path d="M259.092 247.623L230.889 231.339L202.685 247.623L230.889 263.906L259.092 247.623Z" fill="#FCFCFC"/>
<path d="M202.685 274.559L230.889 290.842V258.275L202.685 241.992V274.559Z" fill="#EFEFEF"/>
<path d="M259.092 274.559V241.992L230.889 258.275V290.842L259.092 274.559Z" fill="#D9D9D9"/>
<path d="M259.092 241.992L230.889 225.709L202.685 241.992L230.889 258.275L259.092 241.992Z" fill="#FCFCFC"/>
<g filter="url(#filter1_d_49_393)">
<path d="M517.016 159.901L371.584 252.914C368.937 254.607 365.544 254.594 362.91 252.88L209.772 153.237C204.966 150.11 204.913 143.092 209.672 139.893L344.629 49.1644C347.195 47.4392 350.526 47.3474 353.183 48.9286L516.796 146.286C521.911 149.33 522.03 156.694 517.016 159.901Z" fill="#FAFAFA"/>
</g>
<path d="M241.093 146.015L269.296 162.299V129.732L241.093 113.448V146.015Z" fill="#EFEFEF"/>
<path d="M297.5 146.015V113.448L269.296 129.732V162.299L297.5 146.015Z" fill="#D9D9D9"/>
<path d="M297.5 113.448L269.296 97.1651L241.093 113.448L269.296 129.732L297.5 113.448Z" fill="#FCFCFC"/>
<path d="M241.093 113.448L269.296 129.732V97.1652L241.093 80.8818V113.448Z" fill="#EFEFEF"/>
<path d="M297.5 113.448V80.8818L269.296 97.1652V129.732L297.5 113.448Z" fill="#D9D9D9"/>
<path d="M297.5 80.8818L269.296 64.5985L241.093 80.8818L269.296 97.1652L297.5 80.8818Z" fill="#FCFCFC"/>
<path d="M307.391 85.0463L335.595 101.33V68.763L307.391 52.4797V85.0463Z" fill="#EFEFEF"/>
<path d="M363.798 85.0463V52.4797L335.595 68.763V101.33L363.798 85.0463Z" fill="#D9D9D9"/>
<path d="M363.798 52.4797L335.595 36.1963L307.391 52.4797L335.595 68.763L363.798 52.4797Z" fill="#FCFCFC"/>
<path d="M307.391 54.4808L335.595 70.7642V38.1975L307.391 21.9142V54.4808Z" fill="#EFEFEF"/>
<path d="M363.798 54.4808V21.9142L335.595 38.1975V70.7642L363.798 54.4808Z" fill="#D9D9D9"/>
<path d="M363.798 21.9142L335.595 5.63083L307.391 21.9142L335.595 38.1975L363.798 21.9142Z" fill="#FCFCFC"/>
<path d="M307.391 48.85L335.595 65.1334V32.5667L307.391 16.2833V48.85Z" fill="#EFEFEF"/>
<path d="M363.798 48.85V16.2833L335.595 32.5667V65.1334L363.798 48.85Z" fill="#D9D9D9"/>
<path d="M363.798 16.2833L335.595 0L307.391 16.2833L335.595 32.5667L363.798 16.2833Z" fill="#FCFCFC"/>
<path d="M291.82 178.872L320.023 195.155V162.588L291.82 146.305V178.872Z" fill="#EFEFEF"/>
<path d="M348.227 178.872V146.305L320.023 162.588V195.155L348.227 178.872Z" fill="#D9D9D9"/>
<path d="M348.227 146.305L320.023 130.022L291.82 146.305L320.023 162.588L348.227 146.305Z" fill="#FCFCFC"/>
<path d="M291.82 146.305L320.023 162.588V130.022L291.82 113.738V146.305Z" fill="#EFEFEF"/>
<path d="M348.227 146.305V113.738L320.023 130.022V162.588L348.227 146.305Z" fill="#D9D9D9"/>
<path d="M348.227 113.738L320.023 97.4548L291.82 113.738L320.023 130.022L348.227 113.738Z" fill="#FCFCFC"/>
<path d="M342.86 219.29L371.064 235.574V203.007L342.86 186.724V219.29Z" fill="#EFEFEF"/>
<path d="M399.267 219.29V186.724L371.064 203.007V235.574L399.267 219.29Z" fill="#D9D9D9"/>
<path d="M399.267 186.724L371.064 170.44L342.86 186.724L371.064 203.007L399.267 186.724Z" fill="#FCFCFC"/>
<path d="M342.86 186.724L371.064 203.007V170.44L342.86 154.157V186.724Z" fill="#EFEFEF"/>
<path d="M399.267 186.724V154.157L371.064 170.44V203.007L399.267 186.724Z" fill="#D9D9D9"/>
<path d="M399.267 154.157L371.064 137.874L342.86 154.157L371.064 170.44L399.267 154.157Z" fill="#FCFCFC"/>
<path d="M355.277 130.623L383.481 146.906V114.34L355.277 98.0563V130.623Z" fill="#EFEFEF"/>
<path d="M411.684 130.623V98.0563L383.48 114.34V146.906L411.684 130.623Z" fill="#D9D9D9"/>
<path d="M411.684 98.0563L383.481 81.7729L355.277 98.0563L383.481 114.34L411.684 98.0563Z" fill="#FCFCFC"/>
<path d="M355.277 100.057L383.48 116.341V83.7741L355.277 67.4908V100.057Z" fill="#EFEFEF"/>
<path d="M411.684 100.057V67.4908L383.48 83.7741V116.341L411.684 100.057Z" fill="#D9D9D9"/>
<path d="M411.684 67.4908L383.48 51.2074L355.277 67.4908L383.48 83.7741L411.684 67.4908Z" fill="#FCFCFC"/>
<path d="M355.277 94.4266L383.48 110.71V78.1433L355.277 61.8599V94.4266Z" fill="#EFEFEF"/>
<path d="M411.684 94.4266V61.8599L383.48 78.1433V110.71L411.684 94.4266Z" fill="#D9D9D9"/>
<path d="M411.684 61.8599L383.48 45.5766L355.277 61.8599L383.48 78.1433L411.684 61.8599Z" fill="#FCFCFC"/>
<path d="M402.319 175.657L430.523 191.94V159.374L402.319 143.09V175.657Z" fill="#EFEFEF"/>
<path d="M458.726 175.657V143.09L430.523 159.374V191.94L458.726 175.657Z" fill="#D9D9D9"/>
<path d="M458.726 143.09L430.523 126.807L402.319 143.09L430.523 159.374L458.726 143.09Z" fill="#FCFCFC"/>
<path d="M402.319 145.091L430.523 161.375V128.808L402.319 112.525V145.091Z" fill="#EFEFEF"/>
<path d="M458.726 145.091V112.525L430.523 128.808V161.375L458.726 145.091Z" fill="#D9D9D9"/>
<path d="M458.726 112.525L430.523 96.2414L402.319 112.525L430.523 128.808L458.726 112.525Z" fill="#FCFCFC"/>
<path d="M402.319 139.461L430.523 155.744V123.177L402.319 106.894V139.461Z" fill="#EFEFEF"/>
<path d="M458.726 139.461V106.894L430.523 123.177V155.744L458.726 139.461Z" fill="#D9D9D9"/>
<path d="M458.726 106.894L430.523 90.6106L402.319 106.894L430.523 123.177L458.726 106.894Z" fill="#FCFCFC"/>
<g filter="url(#filter2_d_49_393)">
<path d="M530.012 454.489L384.58 547.503C381.933 549.196 378.54 549.182 375.907 547.469L222.768 447.826C217.962 444.699 217.91 437.68 222.668 434.481L357.626 343.753C360.192 342.028 363.523 341.936 366.18 343.517L529.793 440.875C534.908 443.918 535.027 451.282 530.012 454.489Z" fill="#FAFAFA"/>
</g>
<path d="M254.089 440.604L282.293 456.887V424.32L254.089 408.037V440.604Z" fill="#EFEFEF"/>
<path d="M310.496 440.604V408.037L282.293 424.32V456.887L310.496 440.604Z" fill="#D9D9D9"/>
<path d="M310.496 408.037L282.293 391.754L254.089 408.037L282.293 424.32L310.496 408.037Z" fill="#FCFCFC"/>
<path d="M254.089 408.037L282.293 424.32V391.754L254.089 375.47V408.037Z" fill="#EFEFEF"/>
<path d="M310.496 408.037V375.47L282.293 391.754V424.32L310.496 408.037Z" fill="#D9D9D9"/>
<path d="M310.496 375.47L282.293 359.187L254.089 375.47L282.293 391.754L310.496 375.47Z" fill="#FCFCFC"/>
<path d="M320.388 379.635L348.591 395.918V363.351L320.388 347.068V379.635Z" fill="#EFEFEF"/>
<path d="M376.795 379.635V347.068L348.591 363.351V395.918L376.795 379.635Z" fill="#D9D9D9"/>
<path d="M376.795 347.068L348.591 330.785L320.388 347.068L348.591 363.351L376.795 347.068Z" fill="#FCFCFC"/>
<path d="M320.388 349.069L348.591 365.353V332.786L320.388 316.503V349.069Z" fill="#EFEFEF"/>
<path d="M376.795 349.069V316.503L348.591 332.786V365.353L376.795 349.069Z" fill="#D9D9D9"/>
<path d="M376.795 316.503L348.591 300.219L320.388 316.503L348.591 332.786L376.795 316.503Z" fill="#FCFCFC"/>
<path d="M320.388 343.438L348.591 359.722V327.155L320.388 310.872V343.438Z" fill="#EFEFEF"/>
<path d="M376.795 343.438V310.872L348.591 327.155V359.722L376.795 343.438Z" fill="#D9D9D9"/>
<path d="M376.795 310.872L348.591 294.588L320.388 310.872L348.591 327.155L376.795 310.872Z" fill="#FCFCFC"/>
<path d="M304.816 473.46L333.02 489.743V457.177L304.816 440.893V473.46Z" fill="#EFEFEF"/>
<path d="M361.223 473.46V440.893L333.02 457.177V489.743L361.223 473.46Z" fill="#D9D9D9"/>
<path d="M361.223 440.893L333.02 424.61L304.816 440.893L333.02 457.177L361.223 440.893Z" fill="#FCFCFC"/>
<path d="M304.816 440.893L333.02 457.177V424.61L304.816 408.327V440.893Z" fill="#EFEFEF"/>
<path d="M361.223 440.893V408.327L333.02 424.61V457.177L361.223 440.893Z" fill="#D9D9D9"/>
<path d="M361.223 408.327L333.02 392.043L304.816 408.327L333.02 424.61L361.223 408.327Z" fill="#FCFCFC"/>
<path d="M355.857 513.879L384.06 530.162V497.595L355.857 481.312V513.879Z" fill="#EFEFEF"/>
<path d="M412.264 513.879V481.312L384.06 497.595V530.162L412.264 513.879Z" fill="#D9D9D9"/>
<path d="M412.264 481.312L384.06 465.029L355.857 481.312L384.06 497.595L412.264 481.312Z" fill="#FCFCFC"/>
<path d="M355.857 481.312L384.06 497.595V465.029L355.857 448.745V481.312Z" fill="#EFEFEF"/>
<path d="M412.264 481.312V448.745L384.06 465.029V497.595L412.264 481.312Z" fill="#D9D9D9"/>
<path d="M412.264 448.745L384.061 432.462L355.857 448.745L384.061 465.029L412.264 448.745Z" fill="#FCFCFC"/>
<path d="M368.274 425.211L396.477 441.495V408.928L368.274 392.645V425.211Z" fill="#EFEFEF"/>
<path d="M424.681 425.211V392.645L396.477 408.928V441.495L424.681 425.211Z" fill="#D9D9D9"/>
<path d="M424.681 392.645L396.477 376.361L368.274 392.645L396.477 408.928L424.681 392.645Z" fill="#FCFCFC"/>
<path d="M368.273 394.646L396.477 410.929V378.363L368.273 362.079V394.646Z" fill="#EFEFEF"/>
<path d="M424.681 394.646V362.079L396.477 378.363V410.929L424.681 394.646Z" fill="#D9D9D9"/>
<path d="M424.681 362.079L396.477 345.796L368.273 362.079L396.477 378.363L424.681 362.079Z" fill="#FCFCFC"/>
<path d="M368.273 389.015L396.477 405.298V372.732L368.273 356.448V389.015Z" fill="#EFEFEF"/>
<path d="M424.681 389.015V356.448L396.477 372.732V405.298L424.681 389.015Z" fill="#D9D9D9"/>
<path d="M424.681 356.448L396.477 340.165L368.273 356.448L396.477 372.732L424.681 356.448Z" fill="#FCFCFC"/>
<path d="M415.316 470.245L443.519 486.529V453.962L415.316 437.679V470.245Z" fill="#EFEFEF"/>
<path d="M471.723 470.245V437.679L443.519 453.962V486.529L471.723 470.245Z" fill="#D9D9D9"/>
<path d="M471.723 437.679L443.519 421.395L415.316 437.679L443.519 453.962L471.723 437.679Z" fill="#FCFCFC"/>
<path d="M415.316 439.68L443.519 455.963V423.397L415.316 407.113V439.68Z" fill="#EFEFEF"/>
<path d="M471.723 439.68V407.113L443.519 423.397V455.963L471.723 439.68Z" fill="#D9D9D9"/>
<path d="M471.723 407.113L443.519 390.83L415.316 407.113L443.519 423.397L471.723 407.113Z" fill="#FCFCFC"/>
<path d="M415.316 434.049L443.519 450.332V417.766L415.316 401.482V434.049Z" fill="#EFEFEF"/>
<path d="M471.723 434.049V401.482L443.519 417.766V450.332L471.723 434.049Z" fill="#D9D9D9"/>
<path d="M471.723 401.482L443.519 385.199L415.316 401.482L443.519 417.766L471.723 401.482Z" fill="#FCFCFC"/>
<g filter="url(#filter3_d_49_393)">
<path d="M727.961 312.532L582.529 405.546C579.882 407.239 576.489 407.226 573.855 405.512L420.717 305.869C415.911 302.742 415.858 295.723 420.617 292.524L555.574 201.796C558.141 200.071 561.471 199.979 564.129 201.56L727.742 298.918C732.856 301.962 732.975 309.326 727.961 312.532Z" fill="#FAFAFA"/>
</g>
<path d="M452.038 298.647L480.241 314.93V282.364L452.038 266.08V298.647Z" fill="#EFEFEF"/>
<path d="M508.445 298.647V266.08L480.241 282.364V314.93L508.445 298.647Z" fill="#D9D9D9"/>
<path d="M508.445 266.08L480.241 249.797L452.038 266.08L480.241 282.364L508.445 266.08Z" fill="#FCFCFC"/>
<path d="M452.038 266.08L480.241 282.364V249.797L452.038 233.514V266.08Z" fill="#EFEFEF"/>
<path d="M508.445 266.08V233.514L480.241 249.797V282.364L508.445 266.08Z" fill="#D9D9D9"/>
<path d="M508.445 233.514L480.241 217.23L452.038 233.514L480.241 249.797L508.445 233.514Z" fill="#FCFCFC"/>
<path d="M518.336 237.678L546.54 253.961V221.395L518.336 205.111V237.678Z" fill="#EFEFEF"/>
<path d="M574.743 237.678V205.111L546.54 221.395V253.961L574.743 237.678Z" fill="#D9D9D9"/>
<path d="M574.743 205.111L546.54 188.828L518.336 205.111L546.54 221.395L574.743 205.111Z" fill="#FCFCFC"/>
<path d="M518.336 207.113L546.54 223.396V190.829L518.336 174.546V207.113Z" fill="#EFEFEF"/>
<path d="M574.743 207.113V174.546L546.54 190.829V223.396L574.743 207.113Z" fill="#D9D9D9"/>
<path d="M574.743 174.546L546.54 158.263L518.336 174.546L546.54 190.829L574.743 174.546Z" fill="#FCFCFC"/>
<path d="M518.336 201.482L546.54 217.765V185.198L518.336 168.915V201.482Z" fill="#EFEFEF"/>
<path d="M574.743 201.482V168.915L546.54 185.198V217.765L574.743 201.482Z" fill="#D9D9D9"/>
<path d="M574.743 168.915L546.54 152.632L518.336 168.915L546.54 185.198L574.743 168.915Z" fill="#FCFCFC"/>
<path d="M502.765 331.503L530.968 347.787V315.22L502.765 298.937V331.503Z" fill="#EFEFEF"/>
<path d="M559.172 331.503V298.937L530.968 315.22V347.787L559.172 331.503Z" fill="#D9D9D9"/>
<path d="M559.172 298.937L530.968 282.653L502.765 298.937L530.968 315.22L559.172 298.937Z" fill="#FCFCFC"/>
<path d="M502.765 298.937L530.968 315.22V282.653L502.765 266.37V298.937Z" fill="#EFEFEF"/>
<path d="M559.172 298.937V266.37L530.968 282.653V315.22L559.172 298.937Z" fill="#D9D9D9"/>
<path d="M559.172 266.37L530.968 250.087L502.765 266.37L530.968 282.653L559.172 266.37Z" fill="#FCFCFC"/>
<path d="M553.806 371.922L582.009 388.205V355.639L553.806 339.355V371.922Z" fill="#EFEFEF"/>
<path d="M610.213 371.922V339.355L582.009 355.639V388.205L610.213 371.922Z" fill="#D9D9D9"/>
<path d="M610.213 339.355L582.009 323.072L553.805 339.355L582.009 355.639L610.213 339.355Z" fill="#FCFCFC"/>
<path d="M553.805 339.355L582.009 355.639V323.072L553.805 306.789V339.355Z" fill="#EFEFEF"/>
<path d="M610.213 339.355V306.789L582.009 323.072V355.639L610.213 339.355Z" fill="#D9D9D9"/>
<path d="M610.213 306.789L582.009 290.505L553.806 306.789L582.009 323.072L610.213 306.789Z" fill="#FCFCFC"/>
<path d="M566.222 283.255L594.426 299.538V266.971L566.222 250.688V283.255Z" fill="#EFEFEF"/>
<path d="M622.629 283.255V250.688L594.426 266.971V299.538L622.629 283.255Z" fill="#D9D9D9"/>
<path d="M622.629 250.688L594.426 234.405L566.222 250.688L594.426 266.971L622.629 250.688Z" fill="#FCFCFC"/>
<path d="M566.222 252.689L594.426 268.973V236.406L566.222 220.123V252.689Z" fill="#EFEFEF"/>
<path d="M622.629 252.689V220.123L594.426 236.406V268.973L622.629 252.689Z" fill="#D9D9D9"/>
<path d="M622.629 220.123L594.426 203.839L566.222 220.123L594.426 236.406L622.629 220.123Z" fill="#FCFCFC"/>
<path d="M566.222 247.058L594.426 263.342V230.775L566.222 214.492V247.058Z" fill="#EFEFEF"/>
<path d="M622.629 247.058V214.492L594.426 230.775V263.342L622.629 247.058Z" fill="#D9D9D9"/>
<path d="M622.629 214.492L594.426 198.208L566.222 214.492L594.426 230.775L622.629 214.492Z" fill="#FCFCFC"/>
<path d="M613.264 328.289L641.468 344.572V312.005L613.264 295.722V328.289Z" fill="#EFEFEF"/>
<path d="M669.671 328.289V295.722L641.468 312.005V344.572L669.671 328.289Z" fill="#D9D9D9"/>
<path d="M669.671 295.722L641.468 279.439L613.264 295.722L641.468 312.005L669.671 295.722Z" fill="#FCFCFC"/>
<path d="M613.264 297.723L641.468 314.007V281.44L613.264 265.157V297.723Z" fill="#EFEFEF"/>
<path d="M669.671 297.723V265.157L641.468 281.44V314.007L669.671 297.723Z" fill="#D9D9D9"/>
<path d="M669.671 265.157L641.468 248.873L613.264 265.157L641.468 281.44L669.671 265.157Z" fill="#FCFCFC"/>
<path d="M613.264 292.092L641.468 308.376V275.809L613.264 259.526V292.092Z" fill="#EFEFEF"/>
<path d="M669.671 292.092V259.526L641.468 275.809V308.376L669.671 292.092Z" fill="#D9D9D9"/>
<path d="M669.671 259.526L641.468 243.242L613.264 259.526L641.468 275.809L669.671 259.526Z" fill="#FCFCFC"/>
<defs>
<filter id="filter0_d_49_393" x="2.50113" y="182.902" width="322.571" height="214.371" filterUnits="userSpaceOnUse" color-interpolation-filters="sRGB">
<feFlood flood-opacity="0" result="BackgroundImageFix"/>
<feColorMatrix in="SourceAlpha" type="matrix" values="0 0 0 0 0 0 0 0 0 0 0 0 0 0 0 0 0 0 127 0" result="hardAlpha"/>
<feOffset dy="4"/>
<feGaussianBlur stdDeviation="2"/>
<feComposite in2="hardAlpha" operator="out"/>
<feColorMatrix type="matrix" values="0 0 0 0 0 0 0 0 0 0 0 0 0 0 0 0 0 0 0.04 0"/>
<feBlend mode="normal" in2="BackgroundImageFix" result="effect1_dropShadow_49_393"/>
<feBlend mode="normal" in="SourceGraphic" in2="effect1_dropShadow_49_393" result="shape"/>
</filter>
<filter id="filter1_d_49_393" x="202.135" y="47.8036" width="322.571" height="214.371" filterUnits="userSpaceOnUse" color-interpolation-filters="sRGB">
<feFlood flood-opacity="0" result="BackgroundImageFix"/>
<feColorMatrix in="SourceAlpha" type="matrix" values="0 0 0 0 0 0 0 0 0 0 0 0 0 0 0 0 0 0 127 0" result="hardAlpha"/>
<feOffset dy="4"/>
<feGaussianBlur stdDeviation="2"/>
<feComposite in2="hardAlpha" operator="out"/>
<feColorMatrix type="matrix" values="0 0 0 0 0 0 0 0 0 0 0 0 0 0 0 0 0 0 0.04 0"/>
<feBlend mode="normal" in2="BackgroundImageFix" result="effect1_dropShadow_49_393"/>
<feBlend mode="normal" in="SourceGraphic" in2="effect1_dropShadow_49_393" result="shape"/>
</filter>
<filter id="filter2_d_49_393" x="215.131" y="342.392" width="322.571" height="214.371" filterUnits="userSpaceOnUse" color-interpolation-filters="sRGB">
<feFlood flood-opacity="0" result="BackgroundImageFix"/>
<feColorMatrix in="SourceAlpha" type="matrix" values="0 0 0 0 0 0 0 0 0 0 0 0 0 0 0 0 0 0 127 0" result="hardAlpha"/>
<feOffset dy="4"/>
<feGaussianBlur stdDeviation="2"/>
<feComposite in2="hardAlpha" operator="out"/>
<feColorMatrix type="matrix" values="0 0 0 0 0 0 0 0 0 0 0 0 0 0 0 0 0 0 0.04 0"/>
<feBlend mode="normal" in2="BackgroundImageFix" result="effect1_dropShadow_49_393"/>
<feBlend mode="normal" in="SourceGraphic" in2="effect1_dropShadow_49_393" result="shape"/>
</filter>
<filter id="filter3_d_49_393" x="413.08" y="200.435" width="322.571" height="214.371" filterUnits="userSpaceOnUse" color-interpolation-filters="sRGB">
<feFlood flood-opacity="0" result="BackgroundImageFix"/>
<feColorMatrix in="SourceAlpha" type="matrix" values="0 0 0 0 0 0 0 0 0 0 0 0 0 0 0 0 0 0 127 0" result="hardAlpha"/>
<feOffset dy="4"/>
<feGaussianBlur stdDeviation="2"/>
<feComposite in2="hardAlpha" operator="out"/>
<feColorMatrix type="matrix" values="0 0 0 0 0 0 0 0 0 0 0 0 0 0 0 0 0 0 0.04 0"/>
<feBlend mode="normal" in2="BackgroundImageFix" result="effect1_dropShadow_49_393"/>
<feBlend mode="normal" in="SourceGraphic" in2="effect1_dropShadow_49_393" result="shape"/>
</filter>
<linearGradient id="paint0_linear_49_393" x1="274.871" y1="203.199" x2="274.871" y2="522.949" gradientUnits="userSpaceOnUse">
<stop stop-color="#E13404" stop-opacity="0"/>
<stop offset="0.427885" stop-color="#E13404"/>
</linearGradient>
</defs>
</svg>
